<mxfile host="Electron" agent="Mozilla/5.0 (Windows NT 10.0; Win64; x64) AppleWebKit/537.36 (KHTML, like Gecko) draw.io/28.1.2 Chrome/138.0.7204.243 Electron/37.4.0 Safari/537.36" version="28.1.2">
  <diagram id="R2lEEEUBdFMjLlhIrx00" name="Page-1">
    <mxGraphModel dx="6718" dy="4704" grid="1" gridSize="10" guides="1" tooltips="1" connect="1" arrows="1" fold="1" page="1" pageScale="1" pageWidth="850" pageHeight="1100" math="0" shadow="0" extFonts="Permanent Marker^https://fonts.googleapis.com/css?family=Permanent+Marker">
      <root>
        <mxCell id="0" />
        <mxCell id="1" parent="0" />
        <mxCell id="C-vyLk0tnHw3VtMMgP7b-23" value="admins" style="shape=table;startSize=30;container=1;collapsible=1;childLayout=tableLayout;fixedRows=1;rowLines=0;fontStyle=1;align=center;resizeLast=1;fontSize=22;" parent="1" vertex="1">
          <mxGeometry x="270" y="-70" width="460" height="190" as="geometry" />
        </mxCell>
        <mxCell id="C-vyLk0tnHw3VtMMgP7b-24" value="" style="shape=partialRectangle;collapsible=0;dropTarget=0;pointerEvents=0;fillColor=none;points=[[0,0.5],[1,0.5]];portConstraint=eastwest;top=0;left=0;right=0;bottom=1;fontSize=22;fontStyle=1" parent="C-vyLk0tnHw3VtMMgP7b-23" vertex="1">
          <mxGeometry y="30" width="460" height="30" as="geometry" />
        </mxCell>
        <mxCell id="C-vyLk0tnHw3VtMMgP7b-25" value="PK" style="shape=partialRectangle;overflow=hidden;connectable=0;fillColor=none;top=0;left=0;bottom=0;right=0;fontStyle=1;fontSize=22;" parent="C-vyLk0tnHw3VtMMgP7b-24" vertex="1">
          <mxGeometry width="30" height="30" as="geometry">
            <mxRectangle width="30" height="30" as="alternateBounds" />
          </mxGeometry>
        </mxCell>
        <mxCell id="C-vyLk0tnHw3VtMMgP7b-26" value="  `id` int(100) NOT NULL" style="shape=partialRectangle;overflow=hidden;connectable=0;fillColor=none;top=0;left=0;bottom=0;right=0;align=left;spacingLeft=6;fontStyle=5;fontSize=22;" parent="C-vyLk0tnHw3VtMMgP7b-24" vertex="1">
          <mxGeometry x="30" width="430" height="30" as="geometry">
            <mxRectangle width="430" height="30" as="alternateBounds" />
          </mxGeometry>
        </mxCell>
        <mxCell id="C-vyLk0tnHw3VtMMgP7b-27" value="" style="shape=partialRectangle;collapsible=0;dropTarget=0;pointerEvents=0;fillColor=none;points=[[0,0.5],[1,0.5]];portConstraint=eastwest;top=0;left=0;right=0;bottom=0;fontSize=22;fontStyle=1" parent="C-vyLk0tnHw3VtMMgP7b-23" vertex="1">
          <mxGeometry y="60" width="460" height="130" as="geometry" />
        </mxCell>
        <mxCell id="C-vyLk0tnHw3VtMMgP7b-28" value="" style="shape=partialRectangle;overflow=hidden;connectable=0;fillColor=none;top=0;left=0;bottom=0;right=0;fontSize=22;fontStyle=1" parent="C-vyLk0tnHw3VtMMgP7b-27" vertex="1">
          <mxGeometry width="30" height="130" as="geometry">
            <mxRectangle width="30" height="130" as="alternateBounds" />
          </mxGeometry>
        </mxCell>
        <mxCell id="C-vyLk0tnHw3VtMMgP7b-29" value="`name` varchar(20) NOT NULL,&#xa;&#xa;`password` varchar(50) NOT NULL" style="shape=partialRectangle;overflow=hidden;connectable=0;fillColor=none;top=0;left=0;bottom=0;right=0;align=left;spacingLeft=6;fontSize=22;fontStyle=0" parent="C-vyLk0tnHw3VtMMgP7b-27" vertex="1">
          <mxGeometry x="30" width="430" height="130" as="geometry">
            <mxRectangle width="430" height="130" as="alternateBounds" />
          </mxGeometry>
        </mxCell>
        <mxCell id="rImmkoyUhkc8kld3lksG-9" value="war_user " style="shape=table;startSize=30;container=1;collapsible=1;childLayout=tableLayout;fixedRows=1;rowLines=0;fontStyle=1;align=center;resizeLast=1;fontSize=22;" parent="1" vertex="1">
          <mxGeometry x="1330" y="350" width="540" height="290" as="geometry" />
        </mxCell>
        <mxCell id="rImmkoyUhkc8kld3lksG-10" value="" style="shape=partialRectangle;collapsible=0;dropTarget=0;pointerEvents=0;fillColor=none;points=[[0,0.5],[1,0.5]];portConstraint=eastwest;top=0;left=0;right=0;bottom=1;fontSize=22;fontStyle=1" parent="rImmkoyUhkc8kld3lksG-9" vertex="1">
          <mxGeometry y="30" width="540" height="30" as="geometry" />
        </mxCell>
        <mxCell id="rImmkoyUhkc8kld3lksG-11" value="PK" style="shape=partialRectangle;overflow=hidden;connectable=0;fillColor=none;top=0;left=0;bottom=0;right=0;fontStyle=1;fontSize=22;" parent="rImmkoyUhkc8kld3lksG-10" vertex="1">
          <mxGeometry width="30" height="30" as="geometry">
            <mxRectangle width="30" height="30" as="alternateBounds" />
          </mxGeometry>
        </mxCell>
        <mxCell id="rImmkoyUhkc8kld3lksG-12" value=" user_id INT AUTO_INCREMENT " style="shape=partialRectangle;overflow=hidden;connectable=0;fillColor=none;top=0;left=0;bottom=0;right=0;align=left;spacingLeft=6;fontStyle=5;fontSize=22;" parent="rImmkoyUhkc8kld3lksG-10" vertex="1">
          <mxGeometry x="30" width="510" height="30" as="geometry">
            <mxRectangle width="510" height="30" as="alternateBounds" />
          </mxGeometry>
        </mxCell>
        <mxCell id="rImmkoyUhkc8kld3lksG-13" value="" style="shape=partialRectangle;collapsible=0;dropTarget=0;pointerEvents=0;fillColor=none;points=[[0,0.5],[1,0.5]];portConstraint=eastwest;top=0;left=0;right=0;bottom=0;fontSize=22;fontStyle=1" parent="rImmkoyUhkc8kld3lksG-9" vertex="1">
          <mxGeometry y="60" width="540" height="230" as="geometry" />
        </mxCell>
        <mxCell id="rImmkoyUhkc8kld3lksG-14" value="" style="shape=partialRectangle;overflow=hidden;connectable=0;fillColor=none;top=0;left=0;bottom=0;right=0;fontSize=22;fontStyle=1" parent="rImmkoyUhkc8kld3lksG-13" vertex="1">
          <mxGeometry width="30" height="230" as="geometry">
            <mxRectangle width="30" height="230" as="alternateBounds" />
          </mxGeometry>
        </mxCell>
        <mxCell id="rImmkoyUhkc8kld3lksG-15" value="name VARCHAR(100) NOT NULL,&#xa;&#xa;message TEXT,&#xa;&#xa;image VARCHAR(255),&#xa;&#xa;created_at&#xa;TIMESTAMP DEFAULT CURRENT_TIMESTAMP" style="shape=partialRectangle;overflow=hidden;connectable=0;fillColor=none;top=0;left=0;bottom=0;right=0;align=left;spacingLeft=6;fontSize=22;fontStyle=0" parent="rImmkoyUhkc8kld3lksG-13" vertex="1">
          <mxGeometry x="30" width="510" height="230" as="geometry">
            <mxRectangle width="510" height="230" as="alternateBounds" />
          </mxGeometry>
        </mxCell>
        <mxCell id="rImmkoyUhkc8kld3lksG-1" value="war_admin " style="shape=table;startSize=30;container=1;collapsible=1;childLayout=tableLayout;fixedRows=1;rowLines=0;fontStyle=1;align=center;resizeLast=1;fontSize=22;" parent="1" vertex="1">
          <mxGeometry x="-150" y="190" width="540" height="320" as="geometry" />
        </mxCell>
        <mxCell id="rImmkoyUhkc8kld3lksG-2" value="" style="shape=partialRectangle;collapsible=0;dropTarget=0;pointerEvents=0;fillColor=none;points=[[0,0.5],[1,0.5]];portConstraint=eastwest;top=0;left=0;right=0;bottom=1;fontSize=22;fontStyle=1" parent="rImmkoyUhkc8kld3lksG-1" vertex="1">
          <mxGeometry y="30" width="540" height="30" as="geometry" />
        </mxCell>
        <mxCell id="rImmkoyUhkc8kld3lksG-3" value="PK" style="shape=partialRectangle;overflow=hidden;connectable=0;fillColor=none;top=0;left=0;bottom=0;right=0;fontStyle=1;fontSize=22;" parent="rImmkoyUhkc8kld3lksG-2" vertex="1">
          <mxGeometry width="30" height="30" as="geometry">
            <mxRectangle width="30" height="30" as="alternateBounds" />
          </mxGeometry>
        </mxCell>
        <mxCell id="rImmkoyUhkc8kld3lksG-4" value="admin_id INT AUTO_INCREMENT " style="shape=partialRectangle;overflow=hidden;connectable=0;fillColor=none;top=0;left=0;bottom=0;right=0;align=left;spacingLeft=6;fontStyle=5;fontSize=22;" parent="rImmkoyUhkc8kld3lksG-2" vertex="1">
          <mxGeometry x="30" width="510" height="30" as="geometry">
            <mxRectangle width="510" height="30" as="alternateBounds" />
          </mxGeometry>
        </mxCell>
        <mxCell id="rImmkoyUhkc8kld3lksG-5" value="" style="shape=partialRectangle;collapsible=0;dropTarget=0;pointerEvents=0;fillColor=none;points=[[0,0.5],[1,0.5]];portConstraint=eastwest;top=0;left=0;right=0;bottom=0;fontSize=22;fontStyle=1" parent="rImmkoyUhkc8kld3lksG-1" vertex="1">
          <mxGeometry y="60" width="540" height="260" as="geometry" />
        </mxCell>
        <mxCell id="rImmkoyUhkc8kld3lksG-6" value="" style="shape=partialRectangle;overflow=hidden;connectable=0;fillColor=none;top=0;left=0;bottom=0;right=0;fontSize=22;fontStyle=1" parent="rImmkoyUhkc8kld3lksG-5" vertex="1">
          <mxGeometry width="30" height="260" as="geometry">
            <mxRectangle width="30" height="260" as="alternateBounds" />
          </mxGeometry>
        </mxCell>
        <mxCell id="rImmkoyUhkc8kld3lksG-7" value="name VARCHAR(100) NOT NULL,&#xa;&#xa;&#xa; password VARCHAR(255) NOT NULL,&#xa;&#xa;created_at &#xa;TIMESTAMP DEFAULT CURRENT_TIMESTAMP" style="shape=partialRectangle;overflow=hidden;connectable=0;fillColor=none;top=0;left=0;bottom=0;right=0;align=left;spacingLeft=6;fontSize=22;fontStyle=0" parent="rImmkoyUhkc8kld3lksG-5" vertex="1">
          <mxGeometry x="30" width="510" height="260" as="geometry">
            <mxRectangle width="510" height="260" as="alternateBounds" />
          </mxGeometry>
        </mxCell>
        <mxCell id="rImmkoyUhkc8kld3lksG-16" value="war_image " style="shape=table;startSize=30;container=1;collapsible=1;childLayout=tableLayout;fixedRows=1;rowLines=0;fontStyle=1;align=center;resizeLast=1;fontSize=22;" parent="1" vertex="1">
          <mxGeometry x="730" y="290" width="540" height="330" as="geometry" />
        </mxCell>
        <mxCell id="rImmkoyUhkc8kld3lksG-17" value="" style="shape=partialRectangle;collapsible=0;dropTarget=0;pointerEvents=0;fillColor=none;points=[[0,0.5],[1,0.5]];portConstraint=eastwest;top=0;left=0;right=0;bottom=1;fontSize=22;fontStyle=1" parent="rImmkoyUhkc8kld3lksG-16" vertex="1">
          <mxGeometry y="30" width="540" height="30" as="geometry" />
        </mxCell>
        <mxCell id="rImmkoyUhkc8kld3lksG-18" value="PK" style="shape=partialRectangle;overflow=hidden;connectable=0;fillColor=none;top=0;left=0;bottom=0;right=0;fontStyle=1;fontSize=22;" parent="rImmkoyUhkc8kld3lksG-17" vertex="1">
          <mxGeometry width="30" height="30" as="geometry">
            <mxRectangle width="30" height="30" as="alternateBounds" />
          </mxGeometry>
        </mxCell>
        <mxCell id="rImmkoyUhkc8kld3lksG-19" value="    id INT AUTO_INCREMENT " style="shape=partialRectangle;overflow=hidden;connectable=0;fillColor=none;top=0;left=0;bottom=0;right=0;align=left;spacingLeft=6;fontStyle=5;fontSize=22;" parent="rImmkoyUhkc8kld3lksG-17" vertex="1">
          <mxGeometry x="30" width="510" height="30" as="geometry">
            <mxRectangle width="510" height="30" as="alternateBounds" />
          </mxGeometry>
        </mxCell>
        <mxCell id="rImmkoyUhkc8kld3lksG-20" value="" style="shape=partialRectangle;collapsible=0;dropTarget=0;pointerEvents=0;fillColor=none;points=[[0,0.5],[1,0.5]];portConstraint=eastwest;top=0;left=0;right=0;bottom=0;fontSize=22;fontStyle=1" parent="rImmkoyUhkc8kld3lksG-16" vertex="1">
          <mxGeometry y="60" width="540" height="270" as="geometry" />
        </mxCell>
        <mxCell id="rImmkoyUhkc8kld3lksG-21" value="" style="shape=partialRectangle;overflow=hidden;connectable=0;fillColor=none;top=0;left=0;bottom=0;right=0;fontSize=22;fontStyle=1" parent="rImmkoyUhkc8kld3lksG-20" vertex="1">
          <mxGeometry width="30" height="270" as="geometry">
            <mxRectangle width="30" height="270" as="alternateBounds" />
          </mxGeometry>
        </mxCell>
        <mxCell id="rImmkoyUhkc8kld3lksG-22" value="photo_name&#xa;VARCHAR(150) NOT NULL,&#xa;&#xa;photo_image  VARCHAR(255) NOT NULL,&#xa;&#xa;created_at &#xa;TIMESTAMP DEFAULT CURRENT_TIMESTAMP" style="shape=partialRectangle;overflow=hidden;connectable=0;fillColor=none;top=0;left=0;bottom=0;right=0;align=left;spacingLeft=6;fontSize=22;fontStyle=0" parent="rImmkoyUhkc8kld3lksG-20" vertex="1">
          <mxGeometry x="30" width="510" height="270" as="geometry">
            <mxRectangle width="510" height="270" as="alternateBounds" />
          </mxGeometry>
        </mxCell>
        <mxCell id="rImmkoyUhkc8kld3lksG-23" value="war_story " style="shape=table;startSize=30;container=1;collapsible=1;childLayout=tableLayout;fixedRows=1;rowLines=0;fontStyle=1;align=center;resizeLast=1;fontSize=22;" parent="1" vertex="1">
          <mxGeometry x="1290" y="710" width="540" height="410" as="geometry" />
        </mxCell>
        <mxCell id="rImmkoyUhkc8kld3lksG-24" value="" style="shape=partialRectangle;collapsible=0;dropTarget=0;pointerEvents=0;fillColor=none;points=[[0,0.5],[1,0.5]];portConstraint=eastwest;top=0;left=0;right=0;bottom=1;fontSize=22;fontStyle=1" parent="rImmkoyUhkc8kld3lksG-23" vertex="1">
          <mxGeometry y="30" width="540" height="70" as="geometry" />
        </mxCell>
        <mxCell id="rImmkoyUhkc8kld3lksG-25" value="PK" style="shape=partialRectangle;overflow=hidden;connectable=0;fillColor=none;top=0;left=0;bottom=0;right=0;fontStyle=1;fontSize=22;" parent="rImmkoyUhkc8kld3lksG-24" vertex="1">
          <mxGeometry width="30" height="70" as="geometry">
            <mxRectangle width="30" height="70" as="alternateBounds" />
          </mxGeometry>
        </mxCell>
        <mxCell id="rImmkoyUhkc8kld3lksG-26" value="id  INT AUTO_INCREMENT " style="shape=partialRectangle;overflow=hidden;connectable=0;fillColor=none;top=0;left=0;bottom=0;right=0;align=left;spacingLeft=6;fontStyle=5;fontSize=22;" parent="rImmkoyUhkc8kld3lksG-24" vertex="1">
          <mxGeometry x="30" width="510" height="70" as="geometry">
            <mxRectangle width="510" height="70" as="alternateBounds" />
          </mxGeometry>
        </mxCell>
        <mxCell id="rImmkoyUhkc8kld3lksG-27" value="" style="shape=partialRectangle;collapsible=0;dropTarget=0;pointerEvents=0;fillColor=none;points=[[0,0.5],[1,0.5]];portConstraint=eastwest;top=0;left=0;right=0;bottom=0;fontSize=22;fontStyle=1" parent="rImmkoyUhkc8kld3lksG-23" vertex="1">
          <mxGeometry y="100" width="540" height="310" as="geometry" />
        </mxCell>
        <mxCell id="rImmkoyUhkc8kld3lksG-28" value="" style="shape=partialRectangle;overflow=hidden;connectable=0;fillColor=none;top=0;left=0;bottom=0;right=0;fontSize=22;fontStyle=1" parent="rImmkoyUhkc8kld3lksG-27" vertex="1">
          <mxGeometry width="30" height="310" as="geometry">
            <mxRectangle width="30" height="310" as="alternateBounds" />
          </mxGeometry>
        </mxCell>
        <mxCell id="rImmkoyUhkc8kld3lksG-29" value="name VARCHAR(255)&#xa;NOT NULL,&#xa;&#xa;media TEXT,&#xa;&#xa;&#xa;message TEXT,&#xa;&#xa;&#xa;created_at&#xa;TIMESTAMP DEFAULT CURRENT_TIMESTAMP" style="shape=partialRectangle;overflow=hidden;connectable=0;fillColor=none;top=0;left=0;bottom=0;right=0;align=left;spacingLeft=6;fontSize=22;fontStyle=0" parent="rImmkoyUhkc8kld3lksG-27" vertex="1">
          <mxGeometry x="30" width="510" height="310" as="geometry">
            <mxRectangle width="510" height="310" as="alternateBounds" />
          </mxGeometry>
        </mxCell>
        <mxCell id="rImmkoyUhkc8kld3lksG-30" value="war_comment " style="shape=table;startSize=30;container=1;collapsible=1;childLayout=tableLayout;fixedRows=1;rowLines=0;fontStyle=1;align=center;resizeLast=1;fontSize=22;" parent="1" vertex="1">
          <mxGeometry x="1520" y="-200" width="640" height="480" as="geometry" />
        </mxCell>
        <mxCell id="rImmkoyUhkc8kld3lksG-31" value="" style="shape=partialRectangle;collapsible=0;dropTarget=0;pointerEvents=0;fillColor=none;points=[[0,0.5],[1,0.5]];portConstraint=eastwest;top=0;left=0;right=0;bottom=1;fontSize=22;fontStyle=1" parent="rImmkoyUhkc8kld3lksG-30" vertex="1">
          <mxGeometry y="30" width="640" height="90" as="geometry" />
        </mxCell>
        <mxCell id="rImmkoyUhkc8kld3lksG-32" value="PK" style="shape=partialRectangle;overflow=hidden;connectable=0;fillColor=none;top=0;left=0;bottom=0;right=0;fontStyle=1;fontSize=22;" parent="rImmkoyUhkc8kld3lksG-31" vertex="1">
          <mxGeometry width="30" height="90" as="geometry">
            <mxRectangle width="30" height="90" as="alternateBounds" />
          </mxGeometry>
        </mxCell>
        <mxCell id="rImmkoyUhkc8kld3lksG-33" value="id  INT AUTO_INCREMENT " style="shape=partialRectangle;overflow=hidden;connectable=0;fillColor=none;top=0;left=0;bottom=0;right=0;align=left;spacingLeft=6;fontStyle=5;fontSize=22;" parent="rImmkoyUhkc8kld3lksG-31" vertex="1">
          <mxGeometry x="30" width="610" height="90" as="geometry">
            <mxRectangle width="610" height="90" as="alternateBounds" />
          </mxGeometry>
        </mxCell>
        <mxCell id="rImmkoyUhkc8kld3lksG-34" value="" style="shape=partialRectangle;collapsible=0;dropTarget=0;pointerEvents=0;fillColor=none;points=[[0,0.5],[1,0.5]];portConstraint=eastwest;top=0;left=0;right=0;bottom=0;fontSize=22;fontStyle=1" parent="rImmkoyUhkc8kld3lksG-30" vertex="1">
          <mxGeometry y="120" width="640" height="360" as="geometry" />
        </mxCell>
        <mxCell id="rImmkoyUhkc8kld3lksG-35" value="" style="shape=partialRectangle;overflow=hidden;connectable=0;fillColor=none;top=0;left=0;bottom=0;right=0;fontSize=22;fontStyle=1" parent="rImmkoyUhkc8kld3lksG-34" vertex="1">
          <mxGeometry width="30" height="360" as="geometry">
            <mxRectangle width="30" height="360" as="alternateBounds" />
          </mxGeometry>
        </mxCell>
        <mxCell id="rImmkoyUhkc8kld3lksG-36" value="story_id INT NOT NULL,&#xa;&#xa;parent_id INT DEFAULT NULL,&#xa;&#xa;commenter_name VARCHAR(255),&#xa;&#xa;comment TEXT,&#xa;&#xa;reaction ENUM(&#39;love&#39;,&#39;sad&#39;,&#39;angry&#39;) DEFAULT NULL,&#xa;&#xa;created_at TIMESTAMP DEFAULT CURRENT_TIMESTAMP," style="shape=partialRectangle;overflow=hidden;connectable=0;fillColor=none;top=0;left=0;bottom=0;right=0;align=left;spacingLeft=6;fontSize=22;fontStyle=0" parent="rImmkoyUhkc8kld3lksG-34" vertex="1">
          <mxGeometry x="30" width="610" height="360" as="geometry">
            <mxRectangle width="610" height="360" as="alternateBounds" />
          </mxGeometry>
        </mxCell>
        <mxCell id="rImmkoyUhkc8kld3lksG-37" value="pm_opinions " style="shape=table;startSize=30;container=1;collapsible=1;childLayout=tableLayout;fixedRows=1;rowLines=0;fontStyle=1;align=center;resizeLast=1;fontSize=22;" parent="1" vertex="1">
          <mxGeometry x="1010" y="-880" width="640" height="360" as="geometry" />
        </mxCell>
        <mxCell id="rImmkoyUhkc8kld3lksG-38" value="" style="shape=partialRectangle;collapsible=0;dropTarget=0;pointerEvents=0;fillColor=none;points=[[0,0.5],[1,0.5]];portConstraint=eastwest;top=0;left=0;right=0;bottom=1;fontSize=22;fontStyle=1" parent="rImmkoyUhkc8kld3lksG-37" vertex="1">
          <mxGeometry y="30" width="640" height="90" as="geometry" />
        </mxCell>
        <mxCell id="rImmkoyUhkc8kld3lksG-39" value="PK" style="shape=partialRectangle;overflow=hidden;connectable=0;fillColor=none;top=0;left=0;bottom=0;right=0;fontStyle=1;fontSize=22;" parent="rImmkoyUhkc8kld3lksG-38" vertex="1">
          <mxGeometry width="30" height="90" as="geometry">
            <mxRectangle width="30" height="90" as="alternateBounds" />
          </mxGeometry>
        </mxCell>
        <mxCell id="rImmkoyUhkc8kld3lksG-40" value="id  INT AUTO_INCREMENT " style="shape=partialRectangle;overflow=hidden;connectable=0;fillColor=none;top=0;left=0;bottom=0;right=0;align=left;spacingLeft=6;fontStyle=5;fontSize=22;" parent="rImmkoyUhkc8kld3lksG-38" vertex="1">
          <mxGeometry x="30" width="610" height="90" as="geometry">
            <mxRectangle width="610" height="90" as="alternateBounds" />
          </mxGeometry>
        </mxCell>
        <mxCell id="rImmkoyUhkc8kld3lksG-41" value="" style="shape=partialRectangle;collapsible=0;dropTarget=0;pointerEvents=0;fillColor=none;points=[[0,0.5],[1,0.5]];portConstraint=eastwest;top=0;left=0;right=0;bottom=0;fontSize=22;fontStyle=1" parent="rImmkoyUhkc8kld3lksG-37" vertex="1">
          <mxGeometry y="120" width="640" height="240" as="geometry" />
        </mxCell>
        <mxCell id="rImmkoyUhkc8kld3lksG-42" value="" style="shape=partialRectangle;overflow=hidden;connectable=0;fillColor=none;top=0;left=0;bottom=0;right=0;fontSize=22;fontStyle=1" parent="rImmkoyUhkc8kld3lksG-41" vertex="1">
          <mxGeometry width="30" height="240" as="geometry">
            <mxRectangle width="30" height="240" as="alternateBounds" />
          </mxGeometry>
        </mxCell>
        <mxCell id="rImmkoyUhkc8kld3lksG-43" value=" pm_name  VARCHAR(150) NOT NULL,&#xa;&#xa;user_name VARCHAR(150) NOT NULL,&#xa;&#xa;opinion TEXT NOT NULL,&#xa;&#xa;created_at TIMESTAMP DEFAULT CURRENT_TIMESTAMP" style="shape=partialRectangle;overflow=hidden;connectable=0;fillColor=none;top=0;left=0;bottom=0;right=0;align=left;spacingLeft=6;fontSize=22;fontStyle=0" parent="rImmkoyUhkc8kld3lksG-41" vertex="1">
          <mxGeometry x="30" width="610" height="240" as="geometry">
            <mxRectangle width="610" height="240" as="alternateBounds" />
          </mxGeometry>
        </mxCell>
        <mxCell id="rImmkoyUhkc8kld3lksG-44" value="pm_poll " style="shape=table;startSize=30;container=1;collapsible=1;childLayout=tableLayout;fixedRows=1;rowLines=0;fontStyle=1;align=center;resizeLast=1;fontSize=22;" parent="1" vertex="1">
          <mxGeometry x="390" y="-660" width="530" height="290" as="geometry" />
        </mxCell>
        <mxCell id="rImmkoyUhkc8kld3lksG-45" value="" style="shape=partialRectangle;collapsible=0;dropTarget=0;pointerEvents=0;fillColor=none;points=[[0,0.5],[1,0.5]];portConstraint=eastwest;top=0;left=0;right=0;bottom=1;fontSize=22;fontStyle=1" parent="rImmkoyUhkc8kld3lksG-44" vertex="1">
          <mxGeometry y="30" width="530" height="70" as="geometry" />
        </mxCell>
        <mxCell id="rImmkoyUhkc8kld3lksG-46" value="PK" style="shape=partialRectangle;overflow=hidden;connectable=0;fillColor=none;top=0;left=0;bottom=0;right=0;fontStyle=1;fontSize=22;" parent="rImmkoyUhkc8kld3lksG-45" vertex="1">
          <mxGeometry width="30" height="70" as="geometry">
            <mxRectangle width="30" height="70" as="alternateBounds" />
          </mxGeometry>
        </mxCell>
        <mxCell id="rImmkoyUhkc8kld3lksG-47" value="id  INT AUTO_INCREMENT " style="shape=partialRectangle;overflow=hidden;connectable=0;fillColor=none;top=0;left=0;bottom=0;right=0;align=left;spacingLeft=6;fontStyle=5;fontSize=22;" parent="rImmkoyUhkc8kld3lksG-45" vertex="1">
          <mxGeometry x="30" width="500" height="70" as="geometry">
            <mxRectangle width="500" height="70" as="alternateBounds" />
          </mxGeometry>
        </mxCell>
        <mxCell id="rImmkoyUhkc8kld3lksG-48" value="" style="shape=partialRectangle;collapsible=0;dropTarget=0;pointerEvents=0;fillColor=none;points=[[0,0.5],[1,0.5]];portConstraint=eastwest;top=0;left=0;right=0;bottom=0;fontSize=22;fontStyle=1" parent="rImmkoyUhkc8kld3lksG-44" vertex="1">
          <mxGeometry y="100" width="530" height="190" as="geometry" />
        </mxCell>
        <mxCell id="rImmkoyUhkc8kld3lksG-49" value="" style="shape=partialRectangle;overflow=hidden;connectable=0;fillColor=none;top=0;left=0;bottom=0;right=0;fontSize=22;fontStyle=1" parent="rImmkoyUhkc8kld3lksG-48" vertex="1">
          <mxGeometry width="30" height="190" as="geometry">
            <mxRectangle width="30" height="190" as="alternateBounds" />
          </mxGeometry>
        </mxCell>
        <mxCell id="rImmkoyUhkc8kld3lksG-50" value="pm_name VARCHAR(150) NOT NULL UNIQUE,&#xa; &#xa;votes INT DEFAULT 0,&#xa;created_at &#xa;TIMESTAMP DEFAULT CURRENT_TIMESTAMP" style="shape=partialRectangle;overflow=hidden;connectable=0;fillColor=none;top=0;left=0;bottom=0;right=0;align=left;spacingLeft=6;fontSize=22;fontStyle=0" parent="rImmkoyUhkc8kld3lksG-48" vertex="1">
          <mxGeometry x="30" width="500" height="190" as="geometry">
            <mxRectangle width="500" height="190" as="alternateBounds" />
          </mxGeometry>
        </mxCell>
        <mxCell id="rImmkoyUhkc8kld3lksG-51" value="tbl_category" style="shape=table;startSize=30;container=1;collapsible=1;childLayout=tableLayout;fixedRows=1;rowLines=0;fontStyle=1;align=center;resizeLast=1;fontSize=22;" parent="1" vertex="1">
          <mxGeometry x="-180" y="-520" width="420" height="190" as="geometry" />
        </mxCell>
        <mxCell id="rImmkoyUhkc8kld3lksG-52" value="" style="shape=partialRectangle;collapsible=0;dropTarget=0;pointerEvents=0;fillColor=none;points=[[0,0.5],[1,0.5]];portConstraint=eastwest;top=0;left=0;right=0;bottom=1;fontSize=22;fontStyle=1" parent="rImmkoyUhkc8kld3lksG-51" vertex="1">
          <mxGeometry y="30" width="420" height="70" as="geometry" />
        </mxCell>
        <mxCell id="rImmkoyUhkc8kld3lksG-53" value="PK" style="shape=partialRectangle;overflow=hidden;connectable=0;fillColor=none;top=0;left=0;bottom=0;right=0;fontStyle=1;fontSize=22;" parent="rImmkoyUhkc8kld3lksG-52" vertex="1">
          <mxGeometry width="30" height="70" as="geometry">
            <mxRectangle width="30" height="70" as="alternateBounds" />
          </mxGeometry>
        </mxCell>
        <mxCell id="rImmkoyUhkc8kld3lksG-54" value="  tbl_category_id  int(11) NOT NULL" style="shape=partialRectangle;overflow=hidden;connectable=0;fillColor=none;top=0;left=0;bottom=0;right=0;align=left;spacingLeft=6;fontStyle=5;fontSize=22;" parent="rImmkoyUhkc8kld3lksG-52" vertex="1">
          <mxGeometry x="30" width="390" height="70" as="geometry">
            <mxRectangle width="390" height="70" as="alternateBounds" />
          </mxGeometry>
        </mxCell>
        <mxCell id="rImmkoyUhkc8kld3lksG-55" value="" style="shape=partialRectangle;collapsible=0;dropTarget=0;pointerEvents=0;fillColor=none;points=[[0,0.5],[1,0.5]];portConstraint=eastwest;top=0;left=0;right=0;bottom=0;fontSize=22;fontStyle=1" parent="rImmkoyUhkc8kld3lksG-51" vertex="1">
          <mxGeometry y="100" width="420" height="90" as="geometry" />
        </mxCell>
        <mxCell id="rImmkoyUhkc8kld3lksG-56" value="" style="shape=partialRectangle;overflow=hidden;connectable=0;fillColor=none;top=0;left=0;bottom=0;right=0;fontSize=22;fontStyle=1" parent="rImmkoyUhkc8kld3lksG-55" vertex="1">
          <mxGeometry width="30" height="90" as="geometry">
            <mxRectangle width="30" height="90" as="alternateBounds" />
          </mxGeometry>
        </mxCell>
        <mxCell id="rImmkoyUhkc8kld3lksG-57" value="`category_name` text NOT NULL" style="shape=partialRectangle;overflow=hidden;connectable=0;fillColor=none;top=0;left=0;bottom=0;right=0;align=left;spacingLeft=6;fontSize=22;fontStyle=0" parent="rImmkoyUhkc8kld3lksG-55" vertex="1">
          <mxGeometry x="30" width="390" height="90" as="geometry">
            <mxRectangle width="390" height="90" as="alternateBounds" />
          </mxGeometry>
        </mxCell>
        <mxCell id="rImmkoyUhkc8kld3lksG-58" value="tbl_recipe" style="shape=table;startSize=30;container=1;collapsible=1;childLayout=tableLayout;fixedRows=1;rowLines=0;fontStyle=1;align=center;resizeLast=1;fontSize=22;" parent="1" vertex="1">
          <mxGeometry x="-340" y="-1140" width="430" height="390" as="geometry" />
        </mxCell>
        <mxCell id="rImmkoyUhkc8kld3lksG-59" value="" style="shape=partialRectangle;collapsible=0;dropTarget=0;pointerEvents=0;fillColor=none;points=[[0,0.5],[1,0.5]];portConstraint=eastwest;top=0;left=0;right=0;bottom=1;fontSize=22;fontStyle=1" parent="rImmkoyUhkc8kld3lksG-58" vertex="1">
          <mxGeometry y="30" width="430" height="70" as="geometry" />
        </mxCell>
        <mxCell id="rImmkoyUhkc8kld3lksG-60" value="PK" style="shape=partialRectangle;overflow=hidden;connectable=0;fillColor=none;top=0;left=0;bottom=0;right=0;fontStyle=1;fontSize=22;" parent="rImmkoyUhkc8kld3lksG-59" vertex="1">
          <mxGeometry width="40" height="70" as="geometry">
            <mxRectangle width="40" height="70" as="alternateBounds" />
          </mxGeometry>
        </mxCell>
        <mxCell id="rImmkoyUhkc8kld3lksG-61" value="tbl_recipe_id  int(11) NOT NULL" style="shape=partialRectangle;overflow=hidden;connectable=0;fillColor=none;top=0;left=0;bottom=0;right=0;align=left;spacingLeft=6;fontStyle=5;fontSize=22;" parent="rImmkoyUhkc8kld3lksG-59" vertex="1">
          <mxGeometry x="40" width="390" height="70" as="geometry">
            <mxRectangle width="390" height="70" as="alternateBounds" />
          </mxGeometry>
        </mxCell>
        <mxCell id="rImmkoyUhkc8kld3lksG-62" value="" style="shape=partialRectangle;collapsible=0;dropTarget=0;pointerEvents=0;fillColor=none;points=[[0,0.5],[1,0.5]];portConstraint=eastwest;top=0;left=0;right=0;bottom=0;fontSize=22;fontStyle=1" parent="rImmkoyUhkc8kld3lksG-58" vertex="1">
          <mxGeometry y="100" width="430" height="290" as="geometry" />
        </mxCell>
        <mxCell id="rImmkoyUhkc8kld3lksG-63" value="" style="shape=partialRectangle;overflow=hidden;connectable=0;fillColor=none;top=0;left=0;bottom=0;right=0;fontSize=22;fontStyle=1" parent="rImmkoyUhkc8kld3lksG-62" vertex="1">
          <mxGeometry width="40" height="290" as="geometry">
            <mxRectangle width="40" height="290" as="alternateBounds" />
          </mxGeometry>
        </mxCell>
        <mxCell id="rImmkoyUhkc8kld3lksG-64" value="`tbl_category_id` int(11) NOT NULL,&#xa;&#xa; `recipe_image` text NOT NULL,&#xa;&#xa;`recipe_name` text NOT NULL,&#xa;&#xa;`recipe_ingredients` text NOT NULL,&#xa;&#xa;`recipe_procedure` text NOT NULL" style="shape=partialRectangle;overflow=hidden;connectable=0;fillColor=none;top=0;left=0;bottom=0;right=0;align=left;spacingLeft=6;fontSize=22;fontStyle=0" parent="rImmkoyUhkc8kld3lksG-62" vertex="1">
          <mxGeometry x="40" width="390" height="290" as="geometry">
            <mxRectangle width="390" height="290" as="alternateBounds" />
          </mxGeometry>
        </mxCell>
        <mxCell id="rImmkoyUhkc8kld3lksG-65" value="cart" style="shape=table;startSize=30;container=1;collapsible=1;childLayout=tableLayout;fixedRows=1;rowLines=0;fontStyle=1;align=center;resizeLast=1;fontSize=22;" parent="1" vertex="1">
          <mxGeometry x="680" y="850" width="380" height="300" as="geometry" />
        </mxCell>
        <mxCell id="rImmkoyUhkc8kld3lksG-66" value="" style="shape=partialRectangle;collapsible=0;dropTarget=0;pointerEvents=0;fillColor=none;points=[[0,0.5],[1,0.5]];portConstraint=eastwest;top=0;left=0;right=0;bottom=1;fontSize=22;fontStyle=1" parent="rImmkoyUhkc8kld3lksG-65" vertex="1">
          <mxGeometry y="30" width="380" height="70" as="geometry" />
        </mxCell>
        <mxCell id="rImmkoyUhkc8kld3lksG-67" value="PK" style="shape=partialRectangle;overflow=hidden;connectable=0;fillColor=none;top=0;left=0;bottom=0;right=0;fontStyle=1;fontSize=22;" parent="rImmkoyUhkc8kld3lksG-66" vertex="1">
          <mxGeometry width="40" height="70" as="geometry">
            <mxRectangle width="40" height="70" as="alternateBounds" />
          </mxGeometry>
        </mxCell>
        <mxCell id="rImmkoyUhkc8kld3lksG-68" value="  `id` int(100) NOT NULL" style="shape=partialRectangle;overflow=hidden;connectable=0;fillColor=none;top=0;left=0;bottom=0;right=0;align=left;spacingLeft=6;fontStyle=5;fontSize=22;" parent="rImmkoyUhkc8kld3lksG-66" vertex="1">
          <mxGeometry x="40" width="340" height="70" as="geometry">
            <mxRectangle width="340" height="70" as="alternateBounds" />
          </mxGeometry>
        </mxCell>
        <mxCell id="rImmkoyUhkc8kld3lksG-69" value="" style="shape=partialRectangle;collapsible=0;dropTarget=0;pointerEvents=0;fillColor=none;points=[[0,0.5],[1,0.5]];portConstraint=eastwest;top=0;left=0;right=0;bottom=0;fontSize=22;fontStyle=1" parent="rImmkoyUhkc8kld3lksG-65" vertex="1">
          <mxGeometry y="100" width="380" height="200" as="geometry" />
        </mxCell>
        <mxCell id="rImmkoyUhkc8kld3lksG-70" value="" style="shape=partialRectangle;overflow=hidden;connectable=0;fillColor=none;top=0;left=0;bottom=0;right=0;fontSize=22;fontStyle=1" parent="rImmkoyUhkc8kld3lksG-69" vertex="1">
          <mxGeometry width="40" height="200" as="geometry">
            <mxRectangle width="40" height="200" as="alternateBounds" />
          </mxGeometry>
        </mxCell>
        <mxCell id="rImmkoyUhkc8kld3lksG-71" value="`user_id` int(100) NOT NULL,&#xa;`pid` int(100) NOT NULL,&#xa;`name` varchar(100) NOT NULL,&#xa;`price` int(10) NOT NULL,&#xa;`quantity` int(10) NOT NULL,&#xa;`image` varchar(100) NOT NULL" style="shape=partialRectangle;overflow=hidden;connectable=0;fillColor=none;top=0;left=0;bottom=0;right=0;align=left;spacingLeft=6;fontSize=22;fontStyle=0" parent="rImmkoyUhkc8kld3lksG-69" vertex="1">
          <mxGeometry x="40" width="340" height="200" as="geometry">
            <mxRectangle width="340" height="200" as="alternateBounds" />
          </mxGeometry>
        </mxCell>
        <mxCell id="rImmkoyUhkc8kld3lksG-72" value="messages" style="shape=table;startSize=30;container=1;collapsible=1;childLayout=tableLayout;fixedRows=1;rowLines=0;fontStyle=1;align=center;resizeLast=1;fontSize=22;" parent="1" vertex="1">
          <mxGeometry y="530" width="660" height="260" as="geometry" />
        </mxCell>
        <mxCell id="rImmkoyUhkc8kld3lksG-73" value="" style="shape=partialRectangle;collapsible=0;dropTarget=0;pointerEvents=0;fillColor=none;points=[[0,0.5],[1,0.5]];portConstraint=eastwest;top=0;left=0;right=0;bottom=1;fontSize=22;fontStyle=1" parent="rImmkoyUhkc8kld3lksG-72" vertex="1">
          <mxGeometry y="30" width="660" height="30" as="geometry" />
        </mxCell>
        <mxCell id="rImmkoyUhkc8kld3lksG-74" value="PK" style="shape=partialRectangle;overflow=hidden;connectable=0;fillColor=none;top=0;left=0;bottom=0;right=0;fontStyle=1;fontSize=22;" parent="rImmkoyUhkc8kld3lksG-73" vertex="1">
          <mxGeometry width="30" height="30" as="geometry">
            <mxRectangle width="30" height="30" as="alternateBounds" />
          </mxGeometry>
        </mxCell>
        <mxCell id="rImmkoyUhkc8kld3lksG-75" value="    id INT AUTO_INCREMENT" style="shape=partialRectangle;overflow=hidden;connectable=0;fillColor=none;top=0;left=0;bottom=0;right=0;align=left;spacingLeft=6;fontStyle=5;fontSize=22;" parent="rImmkoyUhkc8kld3lksG-73" vertex="1">
          <mxGeometry x="30" width="630" height="30" as="geometry">
            <mxRectangle width="630" height="30" as="alternateBounds" />
          </mxGeometry>
        </mxCell>
        <mxCell id="rImmkoyUhkc8kld3lksG-76" value="" style="shape=partialRectangle;collapsible=0;dropTarget=0;pointerEvents=0;fillColor=none;points=[[0,0.5],[1,0.5]];portConstraint=eastwest;top=0;left=0;right=0;bottom=0;fontSize=22;fontStyle=1" parent="rImmkoyUhkc8kld3lksG-72" vertex="1">
          <mxGeometry y="60" width="660" height="200" as="geometry" />
        </mxCell>
        <mxCell id="rImmkoyUhkc8kld3lksG-77" value="" style="shape=partialRectangle;overflow=hidden;connectable=0;fillColor=none;top=0;left=0;bottom=0;right=0;fontSize=22;fontStyle=1" parent="rImmkoyUhkc8kld3lksG-76" vertex="1">
          <mxGeometry width="30" height="200" as="geometry">
            <mxRectangle width="30" height="200" as="alternateBounds" />
          </mxGeometry>
        </mxCell>
        <mxCell id="rImmkoyUhkc8kld3lksG-78" value="user_id INT NOT NULL,&#xa;name VARCHAR(100) NOT NULL,&#xa;email VARCHAR(100) NOT NULL,&#xa;number VARCHAR(12) NOT NULL,&#xa;message VARCHAR(500) NOT NULL,&#xa;created_at TIMESTAMP DEFAULT CURRENT_TIMESTAMP" style="shape=partialRectangle;overflow=hidden;connectable=0;fillColor=none;top=0;left=0;bottom=0;right=0;align=left;spacingLeft=6;fontSize=22;fontStyle=0" parent="rImmkoyUhkc8kld3lksG-76" vertex="1">
          <mxGeometry x="30" width="630" height="200" as="geometry">
            <mxRectangle width="630" height="200" as="alternateBounds" />
          </mxGeometry>
        </mxCell>
        <mxCell id="rImmkoyUhkc8kld3lksG-79" value="orders" style="shape=table;startSize=30;container=1;collapsible=1;childLayout=tableLayout;fixedRows=1;rowLines=0;fontStyle=1;align=center;resizeLast=1;fontSize=22;" parent="1" vertex="1">
          <mxGeometry x="-570" y="1030" width="470" height="400" as="geometry" />
        </mxCell>
        <mxCell id="rImmkoyUhkc8kld3lksG-80" value="" style="shape=partialRectangle;collapsible=0;dropTarget=0;pointerEvents=0;fillColor=none;points=[[0,0.5],[1,0.5]];portConstraint=eastwest;top=0;left=0;right=0;bottom=1;fontSize=22;fontStyle=1" parent="rImmkoyUhkc8kld3lksG-79" vertex="1">
          <mxGeometry y="30" width="470" height="30" as="geometry" />
        </mxCell>
        <mxCell id="rImmkoyUhkc8kld3lksG-81" value="PK" style="shape=partialRectangle;overflow=hidden;connectable=0;fillColor=none;top=0;left=0;bottom=0;right=0;fontStyle=1;fontSize=22;" parent="rImmkoyUhkc8kld3lksG-80" vertex="1">
          <mxGeometry width="30" height="30" as="geometry">
            <mxRectangle width="30" height="30" as="alternateBounds" />
          </mxGeometry>
        </mxCell>
        <mxCell id="rImmkoyUhkc8kld3lksG-82" value="    id INT AUTO_INCREMENT" style="shape=partialRectangle;overflow=hidden;connectable=0;fillColor=none;top=0;left=0;bottom=0;right=0;align=left;spacingLeft=6;fontStyle=5;fontSize=22;" parent="rImmkoyUhkc8kld3lksG-80" vertex="1">
          <mxGeometry x="30" width="440" height="30" as="geometry">
            <mxRectangle width="440" height="30" as="alternateBounds" />
          </mxGeometry>
        </mxCell>
        <mxCell id="rImmkoyUhkc8kld3lksG-86" value="" style="shape=partialRectangle;collapsible=0;dropTarget=0;pointerEvents=0;fillColor=none;points=[[0,0.5],[1,0.5]];portConstraint=eastwest;top=0;left=0;right=0;bottom=0;fontSize=22;fontStyle=1" parent="rImmkoyUhkc8kld3lksG-79" vertex="1">
          <mxGeometry y="60" width="470" height="340" as="geometry" />
        </mxCell>
        <mxCell id="rImmkoyUhkc8kld3lksG-87" value="" style="shape=partialRectangle;overflow=hidden;connectable=0;fillColor=none;top=0;left=0;bottom=0;right=0;fontSize=22;fontStyle=1" parent="rImmkoyUhkc8kld3lksG-86" vertex="1">
          <mxGeometry width="30" height="340" as="geometry">
            <mxRectangle width="30" height="340" as="alternateBounds" />
          </mxGeometry>
        </mxCell>
        <mxCell id="rImmkoyUhkc8kld3lksG-88" value="`user_id` int(100) NOT NULL,&#xa;`name` varchar(20) NOT NULL,&#xa;`number` varchar(10) NOT NULL,&#xa;`email` varchar(50) NOT NULL,&#xa;`method` varchar(50) NOT NULL,&#xa;`address` varchar(500) NOT NULL,&#xa;`total_products` varchar(1000) NOT NULL,&#xa;`total_price` int(100) NOT NULL,&#xa;`placed_on` date NOT NULL DEFAULT&#xa;current_timestamp(),&#xa; `payment_status` varchar(20)&#xa;NOT NULL DEFAULT &#39;pending&#39;" style="shape=partialRectangle;overflow=hidden;connectable=0;fillColor=none;top=0;left=0;bottom=0;right=0;align=left;spacingLeft=6;fontSize=22;fontStyle=0" parent="rImmkoyUhkc8kld3lksG-86" vertex="1">
          <mxGeometry x="30" width="440" height="340" as="geometry">
            <mxRectangle width="440" height="340" as="alternateBounds" />
          </mxGeometry>
        </mxCell>
        <mxCell id="rImmkoyUhkc8kld3lksG-89" value="products" style="shape=table;startSize=30;container=1;collapsible=1;childLayout=tableLayout;fixedRows=1;rowLines=0;fontStyle=1;align=center;resizeLast=1;fontSize=22;" parent="1" vertex="1">
          <mxGeometry x="-440" y="1540" width="410" height="280" as="geometry" />
        </mxCell>
        <mxCell id="rImmkoyUhkc8kld3lksG-90" value="" style="shape=partialRectangle;collapsible=0;dropTarget=0;pointerEvents=0;fillColor=none;points=[[0,0.5],[1,0.5]];portConstraint=eastwest;top=0;left=0;right=0;bottom=1;fontSize=22;fontStyle=1" parent="rImmkoyUhkc8kld3lksG-89" vertex="1">
          <mxGeometry y="30" width="410" height="30" as="geometry" />
        </mxCell>
        <mxCell id="rImmkoyUhkc8kld3lksG-91" value="PK" style="shape=partialRectangle;overflow=hidden;connectable=0;fillColor=none;top=0;left=0;bottom=0;right=0;fontStyle=1;fontSize=22;" parent="rImmkoyUhkc8kld3lksG-90" vertex="1">
          <mxGeometry width="30" height="30" as="geometry">
            <mxRectangle width="30" height="30" as="alternateBounds" />
          </mxGeometry>
        </mxCell>
        <mxCell id="rImmkoyUhkc8kld3lksG-92" value="  `id` int(100) NOT NULL" style="shape=partialRectangle;overflow=hidden;connectable=0;fillColor=none;top=0;left=0;bottom=0;right=0;align=left;spacingLeft=6;fontStyle=5;fontSize=22;" parent="rImmkoyUhkc8kld3lksG-90" vertex="1">
          <mxGeometry x="30" width="380" height="30" as="geometry">
            <mxRectangle width="380" height="30" as="alternateBounds" />
          </mxGeometry>
        </mxCell>
        <mxCell id="rImmkoyUhkc8kld3lksG-93" value="" style="shape=partialRectangle;collapsible=0;dropTarget=0;pointerEvents=0;fillColor=none;points=[[0,0.5],[1,0.5]];portConstraint=eastwest;top=0;left=0;right=0;bottom=0;fontSize=22;fontStyle=1" parent="rImmkoyUhkc8kld3lksG-89" vertex="1">
          <mxGeometry y="60" width="410" height="220" as="geometry" />
        </mxCell>
        <mxCell id="rImmkoyUhkc8kld3lksG-94" value="" style="shape=partialRectangle;overflow=hidden;connectable=0;fillColor=none;top=0;left=0;bottom=0;right=0;fontSize=22;fontStyle=1" parent="rImmkoyUhkc8kld3lksG-93" vertex="1">
          <mxGeometry width="30" height="220" as="geometry">
            <mxRectangle width="30" height="220" as="alternateBounds" />
          </mxGeometry>
        </mxCell>
        <mxCell id="rImmkoyUhkc8kld3lksG-95" value=" `name` varchar(100) NOT NULL,&#xa;`details` varchar(500) NOT NULL,&#xa;`price` int(10) NOT NULL,&#xa;`image_01` varchar(100) NOT NULL,&#xa;`image_02` varchar(100) NOT NULL,&#xa;`image_03` varchar(100) NOT NULL" style="shape=partialRectangle;overflow=hidden;connectable=0;fillColor=none;top=0;left=0;bottom=0;right=0;align=left;spacingLeft=6;fontSize=22;fontStyle=0" parent="rImmkoyUhkc8kld3lksG-93" vertex="1">
          <mxGeometry x="30" width="380" height="220" as="geometry">
            <mxRectangle width="380" height="220" as="alternateBounds" />
          </mxGeometry>
        </mxCell>
        <mxCell id="rImmkoyUhkc8kld3lksG-96" value="users" style="shape=table;startSize=30;container=1;collapsible=1;childLayout=tableLayout;fixedRows=1;rowLines=0;fontStyle=1;align=center;resizeLast=1;fontSize=22;" parent="1" vertex="1">
          <mxGeometry x="110" y="990" width="410" height="190" as="geometry" />
        </mxCell>
        <mxCell id="rImmkoyUhkc8kld3lksG-97" value="" style="shape=partialRectangle;collapsible=0;dropTarget=0;pointerEvents=0;fillColor=none;points=[[0,0.5],[1,0.5]];portConstraint=eastwest;top=0;left=0;right=0;bottom=1;fontSize=22;fontStyle=1" parent="rImmkoyUhkc8kld3lksG-96" vertex="1">
          <mxGeometry y="30" width="410" height="30" as="geometry" />
        </mxCell>
        <mxCell id="rImmkoyUhkc8kld3lksG-98" value="PK" style="shape=partialRectangle;overflow=hidden;connectable=0;fillColor=none;top=0;left=0;bottom=0;right=0;fontStyle=1;fontSize=22;" parent="rImmkoyUhkc8kld3lksG-97" vertex="1">
          <mxGeometry width="30" height="30" as="geometry">
            <mxRectangle width="30" height="30" as="alternateBounds" />
          </mxGeometry>
        </mxCell>
        <mxCell id="rImmkoyUhkc8kld3lksG-99" value="  `id` int(100) NOT NULL" style="shape=partialRectangle;overflow=hidden;connectable=0;fillColor=none;top=0;left=0;bottom=0;right=0;align=left;spacingLeft=6;fontStyle=5;fontSize=22;" parent="rImmkoyUhkc8kld3lksG-97" vertex="1">
          <mxGeometry x="30" width="380" height="30" as="geometry">
            <mxRectangle width="380" height="30" as="alternateBounds" />
          </mxGeometry>
        </mxCell>
        <mxCell id="rImmkoyUhkc8kld3lksG-100" value="" style="shape=partialRectangle;collapsible=0;dropTarget=0;pointerEvents=0;fillColor=none;points=[[0,0.5],[1,0.5]];portConstraint=eastwest;top=0;left=0;right=0;bottom=0;fontSize=22;fontStyle=1" parent="rImmkoyUhkc8kld3lksG-96" vertex="1">
          <mxGeometry y="60" width="410" height="130" as="geometry" />
        </mxCell>
        <mxCell id="rImmkoyUhkc8kld3lksG-101" value="" style="shape=partialRectangle;overflow=hidden;connectable=0;fillColor=none;top=0;left=0;bottom=0;right=0;fontSize=22;fontStyle=1" parent="rImmkoyUhkc8kld3lksG-100" vertex="1">
          <mxGeometry width="30" height="130" as="geometry">
            <mxRectangle width="30" height="130" as="alternateBounds" />
          </mxGeometry>
        </mxCell>
        <mxCell id="rImmkoyUhkc8kld3lksG-102" value="`name` varchar(20) NOT NULL,&#xa;`email` varchar(50) NOT NULL,&#xa;`password` varchar(50) NOT NULL" style="shape=partialRectangle;overflow=hidden;connectable=0;fillColor=none;top=0;left=0;bottom=0;right=0;align=left;spacingLeft=6;fontSize=22;fontStyle=0" parent="rImmkoyUhkc8kld3lksG-100" vertex="1">
          <mxGeometry x="30" width="380" height="130" as="geometry">
            <mxRectangle width="380" height="130" as="alternateBounds" />
          </mxGeometry>
        </mxCell>
        <mxCell id="rImmkoyUhkc8kld3lksG-103" value="wish_list" style="shape=table;startSize=30;container=1;collapsible=1;childLayout=tableLayout;fixedRows=1;rowLines=0;fontStyle=1;align=center;resizeLast=1;fontSize=22;" parent="1" vertex="1">
          <mxGeometry x="80" y="1830" width="390" height="230" as="geometry" />
        </mxCell>
        <mxCell id="rImmkoyUhkc8kld3lksG-104" value="" style="shape=partialRectangle;collapsible=0;dropTarget=0;pointerEvents=0;fillColor=none;points=[[0,0.5],[1,0.5]];portConstraint=eastwest;top=0;left=0;right=0;bottom=1;fontSize=22;fontStyle=1" parent="rImmkoyUhkc8kld3lksG-103" vertex="1">
          <mxGeometry y="30" width="390" height="30" as="geometry" />
        </mxCell>
        <mxCell id="rImmkoyUhkc8kld3lksG-105" value="PK" style="shape=partialRectangle;overflow=hidden;connectable=0;fillColor=none;top=0;left=0;bottom=0;right=0;fontStyle=1;fontSize=22;" parent="rImmkoyUhkc8kld3lksG-104" vertex="1">
          <mxGeometry width="30" height="30" as="geometry">
            <mxRectangle width="30" height="30" as="alternateBounds" />
          </mxGeometry>
        </mxCell>
        <mxCell id="rImmkoyUhkc8kld3lksG-106" value="  `id` int(100) NOT NULL" style="shape=partialRectangle;overflow=hidden;connectable=0;fillColor=none;top=0;left=0;bottom=0;right=0;align=left;spacingLeft=6;fontStyle=5;fontSize=22;" parent="rImmkoyUhkc8kld3lksG-104" vertex="1">
          <mxGeometry x="30" width="360" height="30" as="geometry">
            <mxRectangle width="360" height="30" as="alternateBounds" />
          </mxGeometry>
        </mxCell>
        <mxCell id="rImmkoyUhkc8kld3lksG-107" value="" style="shape=partialRectangle;collapsible=0;dropTarget=0;pointerEvents=0;fillColor=none;points=[[0,0.5],[1,0.5]];portConstraint=eastwest;top=0;left=0;right=0;bottom=0;fontSize=22;fontStyle=1" parent="rImmkoyUhkc8kld3lksG-103" vertex="1">
          <mxGeometry y="60" width="390" height="170" as="geometry" />
        </mxCell>
        <mxCell id="rImmkoyUhkc8kld3lksG-108" value="" style="shape=partialRectangle;overflow=hidden;connectable=0;fillColor=none;top=0;left=0;bottom=0;right=0;fontSize=22;fontStyle=1" parent="rImmkoyUhkc8kld3lksG-107" vertex="1">
          <mxGeometry width="30" height="170" as="geometry">
            <mxRectangle width="30" height="170" as="alternateBounds" />
          </mxGeometry>
        </mxCell>
        <mxCell id="rImmkoyUhkc8kld3lksG-109" value="`user_id` int(100) NOT NULL,&#xa;`pid` int(100) NOT NULL,&#xa;`name` varchar(100) NOT NULL,&#xa;`price` int(100) NOT NULL,&#xa;`image` varchar(100) NOT NULL" style="shape=partialRectangle;overflow=hidden;connectable=0;fillColor=none;top=0;left=0;bottom=0;right=0;align=left;spacingLeft=6;fontSize=22;fontStyle=0" parent="rImmkoyUhkc8kld3lksG-107" vertex="1">
          <mxGeometry x="30" width="360" height="170" as="geometry">
            <mxRectangle width="360" height="170" as="alternateBounds" />
          </mxGeometry>
        </mxCell>
        <mxCell id="rImmkoyUhkc8kld3lksG-110" value="season_photo " style="shape=table;startSize=30;container=1;collapsible=1;childLayout=tableLayout;fixedRows=1;rowLines=0;fontStyle=1;align=center;resizeLast=1;fontSize=22;" parent="1" vertex="1">
          <mxGeometry x="1070" y="1220" width="540" height="220" as="geometry" />
        </mxCell>
        <mxCell id="rImmkoyUhkc8kld3lksG-111" value="" style="shape=partialRectangle;collapsible=0;dropTarget=0;pointerEvents=0;fillColor=none;points=[[0,0.5],[1,0.5]];portConstraint=eastwest;top=0;left=0;right=0;bottom=1;fontSize=22;fontStyle=1" parent="rImmkoyUhkc8kld3lksG-110" vertex="1">
          <mxGeometry y="30" width="540" height="30" as="geometry" />
        </mxCell>
        <mxCell id="rImmkoyUhkc8kld3lksG-112" value="PK" style="shape=partialRectangle;overflow=hidden;connectable=0;fillColor=none;top=0;left=0;bottom=0;right=0;fontStyle=1;fontSize=22;" parent="rImmkoyUhkc8kld3lksG-111" vertex="1">
          <mxGeometry width="30" height="30" as="geometry">
            <mxRectangle width="30" height="30" as="alternateBounds" />
          </mxGeometry>
        </mxCell>
        <mxCell id="rImmkoyUhkc8kld3lksG-113" value="    id INT AUTO_INCREMENT" style="shape=partialRectangle;overflow=hidden;connectable=0;fillColor=none;top=0;left=0;bottom=0;right=0;align=left;spacingLeft=6;fontStyle=5;fontSize=22;" parent="rImmkoyUhkc8kld3lksG-111" vertex="1">
          <mxGeometry x="30" width="510" height="30" as="geometry">
            <mxRectangle width="510" height="30" as="alternateBounds" />
          </mxGeometry>
        </mxCell>
        <mxCell id="rImmkoyUhkc8kld3lksG-114" value="" style="shape=partialRectangle;collapsible=0;dropTarget=0;pointerEvents=0;fillColor=none;points=[[0,0.5],[1,0.5]];portConstraint=eastwest;top=0;left=0;right=0;bottom=0;fontSize=22;fontStyle=1" parent="rImmkoyUhkc8kld3lksG-110" vertex="1">
          <mxGeometry y="60" width="540" height="160" as="geometry" />
        </mxCell>
        <mxCell id="rImmkoyUhkc8kld3lksG-115" value="" style="shape=partialRectangle;overflow=hidden;connectable=0;fillColor=none;top=0;left=0;bottom=0;right=0;fontSize=22;fontStyle=1" parent="rImmkoyUhkc8kld3lksG-114" vertex="1">
          <mxGeometry width="30" height="160" as="geometry">
            <mxRectangle width="30" height="160" as="alternateBounds" />
          </mxGeometry>
        </mxCell>
        <mxCell id="rImmkoyUhkc8kld3lksG-116" value="photo_title VARCHAR(150) NOT NULL,&#xa;photo_path VARCHAR(255) NOT NULL,&#xa;uploaded_by VARCHAR(100) NOT NULL,&#xa;upload_date &#xa;TIMESTAMP DEFAULT CURRENT_TIMESTAMP" style="shape=partialRectangle;overflow=hidden;connectable=0;fillColor=none;top=0;left=0;bottom=0;right=0;align=left;spacingLeft=6;fontSize=22;fontStyle=0" parent="rImmkoyUhkc8kld3lksG-114" vertex="1">
          <mxGeometry x="30" width="510" height="160" as="geometry">
            <mxRectangle width="510" height="160" as="alternateBounds" />
          </mxGeometry>
        </mxCell>
        <mxCell id="rImmkoyUhkc8kld3lksG-117" value="photo_comments " style="shape=table;startSize=30;container=1;collapsible=1;childLayout=tableLayout;fixedRows=1;rowLines=0;fontStyle=1;align=center;resizeLast=1;fontSize=22;" parent="1" vertex="1">
          <mxGeometry x="1070" y="1630" width="750" height="250" as="geometry" />
        </mxCell>
        <mxCell id="rImmkoyUhkc8kld3lksG-118" value="" style="shape=partialRectangle;collapsible=0;dropTarget=0;pointerEvents=0;fillColor=none;points=[[0,0.5],[1,0.5]];portConstraint=eastwest;top=0;left=0;right=0;bottom=1;fontSize=22;fontStyle=1" parent="rImmkoyUhkc8kld3lksG-117" vertex="1">
          <mxGeometry y="30" width="750" height="30" as="geometry" />
        </mxCell>
        <mxCell id="rImmkoyUhkc8kld3lksG-119" value="PK" style="shape=partialRectangle;overflow=hidden;connectable=0;fillColor=none;top=0;left=0;bottom=0;right=0;fontStyle=1;fontSize=22;" parent="rImmkoyUhkc8kld3lksG-118" vertex="1">
          <mxGeometry width="30" height="30" as="geometry">
            <mxRectangle width="30" height="30" as="alternateBounds" />
          </mxGeometry>
        </mxCell>
        <mxCell id="rImmkoyUhkc8kld3lksG-120" value="    id INT AUTO_INCREMENT" style="shape=partialRectangle;overflow=hidden;connectable=0;fillColor=none;top=0;left=0;bottom=0;right=0;align=left;spacingLeft=6;fontStyle=5;fontSize=22;" parent="rImmkoyUhkc8kld3lksG-118" vertex="1">
          <mxGeometry x="30" width="720" height="30" as="geometry">
            <mxRectangle width="720" height="30" as="alternateBounds" />
          </mxGeometry>
        </mxCell>
        <mxCell id="rImmkoyUhkc8kld3lksG-121" value="" style="shape=partialRectangle;collapsible=0;dropTarget=0;pointerEvents=0;fillColor=none;points=[[0,0.5],[1,0.5]];portConstraint=eastwest;top=0;left=0;right=0;bottom=0;fontSize=22;fontStyle=1" parent="rImmkoyUhkc8kld3lksG-117" vertex="1">
          <mxGeometry y="60" width="750" height="130" as="geometry" />
        </mxCell>
        <mxCell id="rImmkoyUhkc8kld3lksG-122" value="" style="shape=partialRectangle;overflow=hidden;connectable=0;fillColor=none;top=0;left=0;bottom=0;right=0;fontSize=22;fontStyle=1" parent="rImmkoyUhkc8kld3lksG-121" vertex="1">
          <mxGeometry width="30" height="130" as="geometry">
            <mxRectangle width="30" height="130" as="alternateBounds" />
          </mxGeometry>
        </mxCell>
        <mxCell id="rImmkoyUhkc8kld3lksG-123" value="photo_id INT NOT NULL,&#xa;username VARCHAR(100) NOT NULL,&#xa;comment TEXT NOT NULL,&#xa;comment_date TIMESTAMP DEFAULT CURRENT_TIMESTAMP,&#xa;" style="shape=partialRectangle;overflow=hidden;connectable=0;fillColor=none;top=0;left=0;bottom=0;right=0;align=left;spacingLeft=6;fontSize=22;fontStyle=0" parent="rImmkoyUhkc8kld3lksG-121" vertex="1">
          <mxGeometry x="30" width="720" height="130" as="geometry">
            <mxRectangle width="720" height="130" as="alternateBounds" />
          </mxGeometry>
        </mxCell>
        <mxCell id="rImmkoyUhkc8kld3lksG-124" value="" style="shape=partialRectangle;collapsible=0;dropTarget=0;pointerEvents=0;fillColor=none;points=[[0,0.5],[1,0.5]];portConstraint=eastwest;top=0;left=0;right=0;bottom=0;fontSize=22;fontStyle=1" parent="rImmkoyUhkc8kld3lksG-117" vertex="1">
          <mxGeometry y="190" width="750" height="60" as="geometry" />
        </mxCell>
        <mxCell id="rImmkoyUhkc8kld3lksG-125" value="FK" style="shape=partialRectangle;overflow=hidden;connectable=0;fillColor=none;top=0;left=0;bottom=0;right=0;fontSize=22;fontStyle=1" parent="rImmkoyUhkc8kld3lksG-124" vertex="1">
          <mxGeometry width="30" height="60" as="geometry">
            <mxRectangle width="30" height="60" as="alternateBounds" />
          </mxGeometry>
        </mxCell>
        <mxCell id="rImmkoyUhkc8kld3lksG-126" value="&#xa;(photo_id) REFERENCES season_photo(id) ON DELETE CASCADE" style="shape=partialRectangle;overflow=hidden;connectable=0;fillColor=none;top=0;left=0;bottom=0;right=0;align=left;spacingLeft=6;fontSize=22;fontStyle=0" parent="rImmkoyUhkc8kld3lksG-124" vertex="1">
          <mxGeometry x="30" width="720" height="60" as="geometry">
            <mxRectangle width="720" height="60" as="alternateBounds" />
          </mxGeometry>
        </mxCell>
        <mxCell id="rImmkoyUhkc8kld3lksG-127" value="photo_reactions " style="shape=table;startSize=30;container=1;collapsible=1;childLayout=tableLayout;fixedRows=1;rowLines=0;fontStyle=1;align=center;resizeLast=1;fontSize=22;" parent="1" vertex="1">
          <mxGeometry x="330" y="1380" width="670" height="250" as="geometry" />
        </mxCell>
        <mxCell id="rImmkoyUhkc8kld3lksG-128" value="" style="shape=partialRectangle;collapsible=0;dropTarget=0;pointerEvents=0;fillColor=none;points=[[0,0.5],[1,0.5]];portConstraint=eastwest;top=0;left=0;right=0;bottom=1;fontSize=22;fontStyle=1" parent="rImmkoyUhkc8kld3lksG-127" vertex="1">
          <mxGeometry y="30" width="670" height="30" as="geometry" />
        </mxCell>
        <mxCell id="rImmkoyUhkc8kld3lksG-129" value="PK" style="shape=partialRectangle;overflow=hidden;connectable=0;fillColor=none;top=0;left=0;bottom=0;right=0;fontStyle=1;fontSize=22;" parent="rImmkoyUhkc8kld3lksG-128" vertex="1">
          <mxGeometry width="30" height="30" as="geometry">
            <mxRectangle width="30" height="30" as="alternateBounds" />
          </mxGeometry>
        </mxCell>
        <mxCell id="rImmkoyUhkc8kld3lksG-130" value="    id INT AUTO_INCREMENT" style="shape=partialRectangle;overflow=hidden;connectable=0;fillColor=none;top=0;left=0;bottom=0;right=0;align=left;spacingLeft=6;fontStyle=5;fontSize=22;" parent="rImmkoyUhkc8kld3lksG-128" vertex="1">
          <mxGeometry x="30" width="640" height="30" as="geometry">
            <mxRectangle width="640" height="30" as="alternateBounds" />
          </mxGeometry>
        </mxCell>
        <mxCell id="rImmkoyUhkc8kld3lksG-131" value="" style="shape=partialRectangle;collapsible=0;dropTarget=0;pointerEvents=0;fillColor=none;points=[[0,0.5],[1,0.5]];portConstraint=eastwest;top=0;left=0;right=0;bottom=0;fontSize=22;fontStyle=1" parent="rImmkoyUhkc8kld3lksG-127" vertex="1">
          <mxGeometry y="60" width="670" height="130" as="geometry" />
        </mxCell>
        <mxCell id="rImmkoyUhkc8kld3lksG-132" value="" style="shape=partialRectangle;overflow=hidden;connectable=0;fillColor=none;top=0;left=0;bottom=0;right=0;fontSize=22;fontStyle=1" parent="rImmkoyUhkc8kld3lksG-131" vertex="1">
          <mxGeometry width="30" height="130" as="geometry">
            <mxRectangle width="30" height="130" as="alternateBounds" />
          </mxGeometry>
        </mxCell>
        <mxCell id="rImmkoyUhkc8kld3lksG-133" value="photo_id INT NOT NULL,&#xa;username VARCHAR(100) NOT NULL,&#xa;reaction ENUM(&#39;angry&#39;, &#39;sad&#39;, &#39;like&#39;, &#39;love&#39;) NOT NULL,&#xa;reaction_date TIMESTAMP DEFAULT CURRENT_TIMESTAMP," style="shape=partialRectangle;overflow=hidden;connectable=0;fillColor=none;top=0;left=0;bottom=0;right=0;align=left;spacingLeft=6;fontSize=22;fontStyle=0" parent="rImmkoyUhkc8kld3lksG-131" vertex="1">
          <mxGeometry x="30" width="640" height="130" as="geometry">
            <mxRectangle width="640" height="130" as="alternateBounds" />
          </mxGeometry>
        </mxCell>
        <mxCell id="rImmkoyUhkc8kld3lksG-134" value="" style="shape=partialRectangle;collapsible=0;dropTarget=0;pointerEvents=0;fillColor=none;points=[[0,0.5],[1,0.5]];portConstraint=eastwest;top=0;left=0;right=0;bottom=0;fontSize=22;fontStyle=1" parent="rImmkoyUhkc8kld3lksG-127" vertex="1">
          <mxGeometry y="190" width="670" height="60" as="geometry" />
        </mxCell>
        <mxCell id="rImmkoyUhkc8kld3lksG-135" value="FK" style="shape=partialRectangle;overflow=hidden;connectable=0;fillColor=none;top=0;left=0;bottom=0;right=0;fontSize=22;fontStyle=1" parent="rImmkoyUhkc8kld3lksG-134" vertex="1">
          <mxGeometry width="30" height="60" as="geometry">
            <mxRectangle width="30" height="60" as="alternateBounds" />
          </mxGeometry>
        </mxCell>
        <mxCell id="rImmkoyUhkc8kld3lksG-136" value="(photo_id) REFERENCES&#xa;season_photo(id) ON DELETE CASCADE" style="shape=partialRectangle;overflow=hidden;connectable=0;fillColor=none;top=0;left=0;bottom=0;right=0;align=left;spacingLeft=6;fontSize=22;fontStyle=0" parent="rImmkoyUhkc8kld3lksG-134" vertex="1">
          <mxGeometry x="30" width="640" height="60" as="geometry">
            <mxRectangle width="640" height="60" as="alternateBounds" />
          </mxGeometry>
        </mxCell>
        <mxCell id="rImmkoyUhkc8kld3lksG-138" value="" style="edgeStyle=entityRelationEdgeStyle;fontSize=12;html=1;endArrow=ERzeroToMany;endFill=1;startArrow=ERzeroToMany;rounded=0;entryX=0.523;entryY=1.012;entryDx=0;entryDy=0;entryPerimeter=0;exitX=0.75;exitY=0;exitDx=0;exitDy=0;" parent="1" source="C-vyLk0tnHw3VtMMgP7b-23" target="rImmkoyUhkc8kld3lksG-48" edge="1">
          <mxGeometry width="100" height="100" relative="1" as="geometry">
            <mxPoint x="690" y="-30" as="sourcePoint" />
            <mxPoint x="790" y="-130" as="targetPoint" />
          </mxGeometry>
        </mxCell>
        <mxCell id="rImmkoyUhkc8kld3lksG-139" value="" style="edgeStyle=entityRelationEdgeStyle;fontSize=12;html=1;endArrow=ERzeroToMany;endFill=1;startArrow=ERzeroToMany;rounded=0;exitX=1.005;exitY=0.393;exitDx=0;exitDy=0;exitPerimeter=0;entryX=-0.006;entryY=0.136;entryDx=0;entryDy=0;entryPerimeter=0;" parent="1" source="rImmkoyUhkc8kld3lksG-48" target="rImmkoyUhkc8kld3lksG-41" edge="1">
          <mxGeometry width="100" height="100" relative="1" as="geometry">
            <mxPoint x="930" y="-430" as="sourcePoint" />
            <mxPoint x="1030" y="-530" as="targetPoint" />
          </mxGeometry>
        </mxCell>
        <mxCell id="rImmkoyUhkc8kld3lksG-140" value="" style="edgeStyle=entityRelationEdgeStyle;fontSize=12;html=1;endArrow=ERzeroToMany;startArrow=ERmandOne;rounded=0;exitX=0.304;exitY=0.002;exitDx=0;exitDy=0;exitPerimeter=0;entryX=0.356;entryY=0.998;entryDx=0;entryDy=0;entryPerimeter=0;" parent="1" source="rImmkoyUhkc8kld3lksG-9" target="rImmkoyUhkc8kld3lksG-34" edge="1">
          <mxGeometry width="100" height="100" relative="1" as="geometry">
            <mxPoint x="1310" y="270" as="sourcePoint" />
            <mxPoint x="1410" y="170" as="targetPoint" />
          </mxGeometry>
        </mxCell>
        <mxCell id="rImmkoyUhkc8kld3lksG-142" value="" style="edgeStyle=entityRelationEdgeStyle;fontSize=12;html=1;endArrow=ERzeroToMany;endFill=1;startArrow=ERzeroToMany;rounded=0;entryX=0.348;entryY=0.997;entryDx=0;entryDy=0;entryPerimeter=0;exitX=0.5;exitY=0;exitDx=0;exitDy=0;" parent="1" source="rImmkoyUhkc8kld3lksG-23" target="rImmkoyUhkc8kld3lksG-13" edge="1">
          <mxGeometry width="100" height="100" relative="1" as="geometry">
            <mxPoint x="1450" y="680" as="sourcePoint" />
            <mxPoint x="1410" y="670" as="targetPoint" />
          </mxGeometry>
        </mxCell>
        <mxCell id="rImmkoyUhkc8kld3lksG-143" value="" style="edgeStyle=entityRelationEdgeStyle;fontSize=12;html=1;endArrow=ERzeroToMany;endFill=1;startArrow=ERzeroToMany;rounded=0;entryX=-0.003;entryY=0.382;entryDx=0;entryDy=0;entryPerimeter=0;exitX=1.002;exitY=0.337;exitDx=0;exitDy=0;exitPerimeter=0;" parent="1" source="rImmkoyUhkc8kld3lksG-20" target="rImmkoyUhkc8kld3lksG-13" edge="1">
          <mxGeometry width="100" height="100" relative="1" as="geometry">
            <mxPoint x="1040" y="570" as="sourcePoint" />
            <mxPoint x="1140" y="470" as="targetPoint" />
          </mxGeometry>
        </mxCell>
        <mxCell id="rImmkoyUhkc8kld3lksG-144" value="" style="edgeStyle=entityRelationEdgeStyle;fontSize=12;html=1;endArrow=ERzeroToOne;startArrow=ERmandOne;rounded=0;entryX=-0.003;entryY=0.608;entryDx=0;entryDy=0;entryPerimeter=0;exitX=0.479;exitY=-0.011;exitDx=0;exitDy=0;exitPerimeter=0;" parent="1" source="rImmkoyUhkc8kld3lksG-1" target="C-vyLk0tnHw3VtMMgP7b-27" edge="1">
          <mxGeometry width="100" height="100" relative="1" as="geometry">
            <mxPoint x="410" y="270" as="sourcePoint" />
            <mxPoint x="510" y="170" as="targetPoint" />
          </mxGeometry>
        </mxCell>
        <mxCell id="rImmkoyUhkc8kld3lksG-145" value="" style="edgeStyle=entityRelationEdgeStyle;fontSize=12;html=1;endArrow=ERoneToMany;startArrow=ERmandOne;rounded=0;exitX=0.361;exitY=-0.018;exitDx=0;exitDy=0;exitPerimeter=0;entryX=0.859;entryY=1.033;entryDx=0;entryDy=0;entryPerimeter=0;" parent="1" source="C-vyLk0tnHw3VtMMgP7b-23" target="rImmkoyUhkc8kld3lksG-55" edge="1">
          <mxGeometry width="100" height="100" relative="1" as="geometry">
            <mxPoint x="410" y="-230" as="sourcePoint" />
            <mxPoint x="510" y="-330" as="targetPoint" />
          </mxGeometry>
        </mxCell>
        <mxCell id="rImmkoyUhkc8kld3lksG-146" value="" style="edgeStyle=entityRelationEdgeStyle;fontSize=12;html=1;endArrow=ERoneToMany;startArrow=ERoneToMany;rounded=0;entryX=0.787;entryY=0.019;entryDx=0;entryDy=0;entryPerimeter=0;" parent="1" source="rImmkoyUhkc8kld3lksG-62" target="rImmkoyUhkc8kld3lksG-51" edge="1">
          <mxGeometry width="100" height="100" relative="1" as="geometry">
            <mxPoint x="-50" y="-230" as="sourcePoint" />
            <mxPoint x="50" y="-330" as="targetPoint" />
          </mxGeometry>
        </mxCell>
        <mxCell id="rImmkoyUhkc8kld3lksG-147" value="" style="edgeStyle=entityRelationEdgeStyle;fontSize=12;html=1;endArrow=ERzeroToMany;startArrow=ERmandOne;rounded=0;exitX=0.25;exitY=0;exitDx=0;exitDy=0;entryX=0.716;entryY=1.005;entryDx=0;entryDy=0;entryPerimeter=0;" parent="1" source="rImmkoyUhkc8kld3lksG-96" target="rImmkoyUhkc8kld3lksG-76" edge="1">
          <mxGeometry width="100" height="100" relative="1" as="geometry">
            <mxPoint x="50" y="850" as="sourcePoint" />
            <mxPoint x="150" y="750" as="targetPoint" />
          </mxGeometry>
        </mxCell>
        <mxCell id="rImmkoyUhkc8kld3lksG-148" value="" style="edgeStyle=entityRelationEdgeStyle;fontSize=12;html=1;endArrow=ERzeroToMany;endFill=1;startArrow=ERzeroToMany;rounded=0;exitX=1;exitY=0;exitDx=0;exitDy=0;entryX=0.637;entryY=0.983;entryDx=0;entryDy=0;entryPerimeter=0;" parent="1" source="rImmkoyUhkc8kld3lksG-72" target="C-vyLk0tnHw3VtMMgP7b-27" edge="1">
          <mxGeometry width="100" height="100" relative="1" as="geometry">
            <mxPoint x="400" y="450" as="sourcePoint" />
            <mxPoint x="500" y="350" as="targetPoint" />
          </mxGeometry>
        </mxCell>
        <mxCell id="rImmkoyUhkc8kld3lksG-149" value="" style="edgeStyle=entityRelationEdgeStyle;fontSize=12;html=1;endArrow=ERzeroToMany;endFill=1;startArrow=ERzeroToMany;rounded=0;exitX=1.008;exitY=0.331;exitDx=0;exitDy=0;exitPerimeter=0;entryX=-0.005;entryY=0.243;entryDx=0;entryDy=0;entryPerimeter=0;" parent="1" source="rImmkoyUhkc8kld3lksG-100" target="rImmkoyUhkc8kld3lksG-69" edge="1">
          <mxGeometry width="100" height="100" relative="1" as="geometry">
            <mxPoint x="400" y="1080" as="sourcePoint" />
            <mxPoint x="500" y="980" as="targetPoint" />
          </mxGeometry>
        </mxCell>
        <mxCell id="rImmkoyUhkc8kld3lksG-150" value="" style="edgeStyle=entityRelationEdgeStyle;fontSize=12;html=1;endArrow=ERzeroToMany;endFill=1;startArrow=ERzeroToMany;rounded=0;exitX=0.996;exitY=0.989;exitDx=0;exitDy=0;exitPerimeter=0;entryX=0.187;entryY=-0.006;entryDx=0;entryDy=0;entryPerimeter=0;" parent="1" source="rImmkoyUhkc8kld3lksG-100" target="rImmkoyUhkc8kld3lksG-110" edge="1">
          <mxGeometry width="100" height="100" relative="1" as="geometry">
            <mxPoint x="730" y="1380" as="sourcePoint" />
            <mxPoint x="830" y="1280" as="targetPoint" />
          </mxGeometry>
        </mxCell>
        <mxCell id="rImmkoyUhkc8kld3lksG-152" value="" style="edgeStyle=entityRelationEdgeStyle;fontSize=12;html=1;endArrow=ERzeroToMany;endFill=1;startArrow=ERzeroToMany;rounded=0;entryX=0.419;entryY=0.981;entryDx=0;entryDy=0;entryPerimeter=0;exitX=0.38;exitY=-0.007;exitDx=0;exitDy=0;exitPerimeter=0;" parent="1" source="rImmkoyUhkc8kld3lksG-117" target="rImmkoyUhkc8kld3lksG-114" edge="1">
          <mxGeometry width="100" height="100" relative="1" as="geometry">
            <mxPoint x="730" y="1680" as="sourcePoint" />
            <mxPoint x="830" y="1580" as="targetPoint" />
          </mxGeometry>
        </mxCell>
        <mxCell id="rImmkoyUhkc8kld3lksG-153" value="" style="edgeStyle=entityRelationEdgeStyle;fontSize=12;html=1;endArrow=ERzeroToMany;endFill=1;startArrow=ERzeroToMany;rounded=0;exitX=0.483;exitY=1.008;exitDx=0;exitDy=0;exitPerimeter=0;entryX=0.403;entryY=-0.009;entryDx=0;entryDy=0;entryPerimeter=0;" parent="1" source="rImmkoyUhkc8kld3lksG-100" target="rImmkoyUhkc8kld3lksG-127" edge="1">
          <mxGeometry width="100" height="100" relative="1" as="geometry">
            <mxPoint x="528" y="1189" as="sourcePoint" />
            <mxPoint x="971" y="1309" as="targetPoint" />
          </mxGeometry>
        </mxCell>
        <mxCell id="rImmkoyUhkc8kld3lksG-154" value="" style="edgeStyle=entityRelationEdgeStyle;fontSize=12;html=1;endArrow=ERzeroToMany;endFill=1;startArrow=ERzeroToMany;rounded=0;exitX=0.089;exitY=-0.01;exitDx=0;exitDy=0;exitPerimeter=0;" parent="1" source="rImmkoyUhkc8kld3lksG-117" target="rImmkoyUhkc8kld3lksG-134" edge="1">
          <mxGeometry width="100" height="100" relative="1" as="geometry">
            <mxPoint x="1060" y="1630" as="sourcePoint" />
            <mxPoint x="590" y="1630" as="targetPoint" />
          </mxGeometry>
        </mxCell>
        <mxCell id="rImmkoyUhkc8kld3lksG-155" value="" style="edgeStyle=entityRelationEdgeStyle;fontSize=12;html=1;endArrow=ERzeroToMany;endFill=1;startArrow=ERzeroToMany;rounded=0;entryX=0.093;entryY=1.014;entryDx=0;entryDy=0;entryPerimeter=0;exitX=0.128;exitY=0;exitDx=0;exitDy=0;exitPerimeter=0;" parent="1" source="rImmkoyUhkc8kld3lksG-103" target="rImmkoyUhkc8kld3lksG-100" edge="1">
          <mxGeometry width="100" height="100" relative="1" as="geometry">
            <mxPoint x="370" y="1630" as="sourcePoint" />
            <mxPoint x="470" y="1530" as="targetPoint" />
          </mxGeometry>
        </mxCell>
        <mxCell id="rImmkoyUhkc8kld3lksG-157" value="" style="edgeStyle=entityRelationEdgeStyle;fontSize=12;html=1;endArrow=ERzeroToOne;startArrow=ERmandOne;rounded=0;entryX=-0.014;entryY=0.672;entryDx=0;entryDy=0;exitX=1.005;exitY=0.541;exitDx=0;exitDy=0;exitPerimeter=0;entryPerimeter=0;" parent="1" source="rImmkoyUhkc8kld3lksG-86" target="rImmkoyUhkc8kld3lksG-100" edge="1">
          <mxGeometry width="100" height="100" relative="1" as="geometry">
            <mxPoint x="-100" y="1210" as="sourcePoint" />
            <mxPoint y="1110" as="targetPoint" />
          </mxGeometry>
        </mxCell>
        <mxCell id="rImmkoyUhkc8kld3lksG-158" value="" style="edgeStyle=entityRelationEdgeStyle;fontSize=12;html=1;endArrow=ERzeroToMany;endFill=1;startArrow=ERzeroToMany;rounded=0;entryX=-0.005;entryY=0.952;entryDx=0;entryDy=0;entryPerimeter=0;exitX=0.919;exitY=-0.002;exitDx=0;exitDy=0;exitPerimeter=0;" parent="1" source="rImmkoyUhkc8kld3lksG-89" target="rImmkoyUhkc8kld3lksG-100" edge="1">
          <mxGeometry width="100" height="100" relative="1" as="geometry">
            <mxPoint x="-100" y="1410" as="sourcePoint" />
            <mxPoint y="1310" as="targetPoint" />
          </mxGeometry>
        </mxCell>
        <object label="festivals" festivals="" id="3S36RkMQc0kjHiOOJcuF-15">
          <mxCell style="shape=table;startSize=30;container=1;collapsible=1;childLayout=tableLayout;fixedRows=1;rowLines=0;fontStyle=1;align=center;resizeLast=1;fontSize=22;" parent="1" vertex="1">
            <mxGeometry x="-900" y="80" width="660" height="270" as="geometry" />
          </mxCell>
        </object>
        <mxCell id="3S36RkMQc0kjHiOOJcuF-16" value="" style="shape=partialRectangle;collapsible=0;dropTarget=0;pointerEvents=0;fillColor=none;points=[[0,0.5],[1,0.5]];portConstraint=eastwest;top=0;left=0;right=0;bottom=1;fontSize=22;fontStyle=1" parent="3S36RkMQc0kjHiOOJcuF-15" vertex="1">
          <mxGeometry y="30" width="660" height="30" as="geometry" />
        </mxCell>
        <mxCell id="3S36RkMQc0kjHiOOJcuF-17" value="PK" style="shape=partialRectangle;overflow=hidden;connectable=0;fillColor=none;top=0;left=0;bottom=0;right=0;fontStyle=1;fontSize=22;" parent="3S36RkMQc0kjHiOOJcuF-16" vertex="1">
          <mxGeometry width="30" height="30" as="geometry">
            <mxRectangle width="30" height="30" as="alternateBounds" />
          </mxGeometry>
        </mxCell>
        <mxCell id="3S36RkMQc0kjHiOOJcuF-18" value="    id INT AUTO_INCREMENT" style="shape=partialRectangle;overflow=hidden;connectable=0;fillColor=none;top=0;left=0;bottom=0;right=0;align=left;spacingLeft=6;fontStyle=5;fontSize=22;" parent="3S36RkMQc0kjHiOOJcuF-16" vertex="1">
          <mxGeometry x="30" width="630" height="30" as="geometry">
            <mxRectangle width="630" height="30" as="alternateBounds" />
          </mxGeometry>
        </mxCell>
        <mxCell id="3S36RkMQc0kjHiOOJcuF-19" value="" style="shape=partialRectangle;collapsible=0;dropTarget=0;pointerEvents=0;fillColor=none;points=[[0,0.5],[1,0.5]];portConstraint=eastwest;top=0;left=0;right=0;bottom=0;fontSize=22;fontStyle=1" parent="3S36RkMQc0kjHiOOJcuF-15" vertex="1">
          <mxGeometry y="60" width="660" height="210" as="geometry" />
        </mxCell>
        <mxCell id="3S36RkMQc0kjHiOOJcuF-20" value="" style="shape=partialRectangle;overflow=hidden;connectable=0;fillColor=none;top=0;left=0;bottom=0;right=0;fontSize=22;fontStyle=1" parent="3S36RkMQc0kjHiOOJcuF-19" vertex="1">
          <mxGeometry width="30" height="210" as="geometry">
            <mxRectangle width="30" height="210" as="alternateBounds" />
          </mxGeometry>
        </mxCell>
        <mxCell id="3S36RkMQc0kjHiOOJcuF-21" value="user_id INT NOT NULL,&#xa;name VARCHAR(100) NOT NULL,&#xa;email VARCHAR(100) NOT NULL,&#xa;number VARCHAR(12) NOT NULL,&#xa;message VARCHAR(500) NOT NULL,&#xa;created_at TIMESTAMP DEFAULT CURRENT_TIMESTAMP" style="shape=partialRectangle;overflow=hidden;connectable=0;fillColor=none;top=0;left=0;bottom=0;right=0;align=left;spacingLeft=6;fontSize=23;fontStyle=0" parent="3S36RkMQc0kjHiOOJcuF-19" vertex="1">
          <mxGeometry x="30" width="630" height="210" as="geometry">
            <mxRectangle width="630" height="210" as="alternateBounds" />
          </mxGeometry>
        </mxCell>
        <object label="reminders" festivals="" id="3S36RkMQc0kjHiOOJcuF-22">
          <mxCell style="shape=table;startSize=30;container=1;collapsible=1;childLayout=tableLayout;fixedRows=1;rowLines=0;fontStyle=1;align=center;resizeLast=1;fontSize=22;" parent="1" vertex="1">
            <mxGeometry x="-930" y="470" width="660" height="270" as="geometry" />
          </mxCell>
        </object>
        <mxCell id="3S36RkMQc0kjHiOOJcuF-23" value="" style="shape=partialRectangle;collapsible=0;dropTarget=0;pointerEvents=0;fillColor=none;points=[[0,0.5],[1,0.5]];portConstraint=eastwest;top=0;left=0;right=0;bottom=1;fontSize=22;fontStyle=1" parent="3S36RkMQc0kjHiOOJcuF-22" vertex="1">
          <mxGeometry y="30" width="660" height="30" as="geometry" />
        </mxCell>
        <mxCell id="3S36RkMQc0kjHiOOJcuF-24" value="PK" style="shape=partialRectangle;overflow=hidden;connectable=0;fillColor=none;top=0;left=0;bottom=0;right=0;fontStyle=1;fontSize=22;" parent="3S36RkMQc0kjHiOOJcuF-23" vertex="1">
          <mxGeometry width="30" height="30" as="geometry">
            <mxRectangle width="30" height="30" as="alternateBounds" />
          </mxGeometry>
        </mxCell>
        <mxCell id="3S36RkMQc0kjHiOOJcuF-25" value="    id INT AUTO_INCREMENT" style="shape=partialRectangle;overflow=hidden;connectable=0;fillColor=none;top=0;left=0;bottom=0;right=0;align=left;spacingLeft=6;fontStyle=5;fontSize=22;" parent="3S36RkMQc0kjHiOOJcuF-23" vertex="1">
          <mxGeometry x="30" width="630" height="30" as="geometry">
            <mxRectangle width="630" height="30" as="alternateBounds" />
          </mxGeometry>
        </mxCell>
        <mxCell id="3S36RkMQc0kjHiOOJcuF-26" value="" style="shape=partialRectangle;collapsible=0;dropTarget=0;pointerEvents=0;fillColor=none;points=[[0,0.5],[1,0.5]];portConstraint=eastwest;top=0;left=0;right=0;bottom=0;fontSize=22;fontStyle=1" parent="3S36RkMQc0kjHiOOJcuF-22" vertex="1">
          <mxGeometry y="60" width="660" height="210" as="geometry" />
        </mxCell>
        <mxCell id="3S36RkMQc0kjHiOOJcuF-27" value="&#xa;&#xa;&#xa;&#xa;&#xa;FK" style="shape=partialRectangle;overflow=hidden;connectable=0;fillColor=none;top=0;left=0;bottom=0;right=0;fontSize=22;fontStyle=1" parent="3S36RkMQc0kjHiOOJcuF-26" vertex="1">
          <mxGeometry width="30" height="210" as="geometry">
            <mxRectangle width="30" height="210" as="alternateBounds" />
          </mxGeometry>
        </mxCell>
        <mxCell id="3S36RkMQc0kjHiOOJcuF-28" value="festival_id INT(11) NOT NULL,&#xa;email VARCHAR(255) NOT NULL,&#xa;reminder_date DATE NOT NULL,&#xa;is_sent TINYINT(4) DEFAULT 0,&#xa;created_at TIMESTAMP DEFAULT CURRENT_TIMESTAMP,&#xa;(festival_id) REFERENCES festivals(id)" style="shape=partialRectangle;overflow=hidden;connectable=0;fillColor=none;top=0;left=0;bottom=0;right=0;align=left;spacingLeft=6;fontSize=22;fontStyle=0" parent="3S36RkMQc0kjHiOOJcuF-26" vertex="1">
          <mxGeometry x="30" width="630" height="210" as="geometry">
            <mxRectangle width="630" height="210" as="alternateBounds" />
          </mxGeometry>
        </mxCell>
        <mxCell id="3S36RkMQc0kjHiOOJcuF-43" value="" style="edgeStyle=entityRelationEdgeStyle;fontSize=12;html=1;endArrow=ERzeroToMany;endFill=1;startArrow=ERzeroToMany;rounded=0;exitX=1.014;exitY=0.21;exitDx=0;exitDy=0;exitPerimeter=0;" parent="1" source="3S36RkMQc0kjHiOOJcuF-19" target="C-vyLk0tnHw3VtMMgP7b-27" edge="1">
          <mxGeometry width="100" height="100" relative="1" as="geometry">
            <mxPoint x="-440" y="230" as="sourcePoint" />
            <mxPoint x="-372" y="360" as="targetPoint" />
            <Array as="points">
              <mxPoint x="-390" y="280" />
              <mxPoint x="-400" y="830" />
            </Array>
          </mxGeometry>
        </mxCell>
        <mxCell id="3S36RkMQc0kjHiOOJcuF-51" value="" style="edgeStyle=entityRelationEdgeStyle;fontSize=12;html=1;endArrow=ERzeroToOne;startArrow=ERmandOne;rounded=0;entryX=0.888;entryY=1.037;entryDx=0;entryDy=0;entryPerimeter=0;exitX=0.078;exitY=-0.026;exitDx=0;exitDy=0;exitPerimeter=0;" parent="1" source="rImmkoyUhkc8kld3lksG-96" target="3S36RkMQc0kjHiOOJcuF-19" edge="1">
          <mxGeometry width="100" height="100" relative="1" as="geometry">
            <mxPoint x="90" y="1030" as="sourcePoint" />
            <mxPoint x="-142" y="700" as="targetPoint" />
            <Array as="points">
              <mxPoint x="100" y="1030" />
              <mxPoint x="40" y="970" />
            </Array>
          </mxGeometry>
        </mxCell>
        <mxCell id="3S36RkMQc0kjHiOOJcuF-52" value="" style="edgeStyle=entityRelationEdgeStyle;fontSize=12;html=1;endArrow=ERzeroToOne;startArrow=ERmandOne;rounded=0;entryX=1;entryY=0.5;entryDx=0;entryDy=0;exitX=-0.009;exitY=0.31;exitDx=0;exitDy=0;exitPerimeter=0;" parent="1" source="rImmkoyUhkc8kld3lksG-100" target="3S36RkMQc0kjHiOOJcuF-26" edge="1">
          <mxGeometry width="100" height="100" relative="1" as="geometry">
            <mxPoint x="-140" y="920" as="sourcePoint" />
            <mxPoint x="-752" y="1070" as="targetPoint" />
          </mxGeometry>
        </mxCell>
        <mxCell id="3S36RkMQc0kjHiOOJcuF-53" value="" style="edgeStyle=entityRelationEdgeStyle;fontSize=12;html=1;endArrow=ERzeroToOne;startArrow=ERmandOne;rounded=0;entryX=0.5;entryY=0;entryDx=0;entryDy=0;exitX=0.486;exitY=1.032;exitDx=0;exitDy=0;exitPerimeter=0;" parent="1" source="3S36RkMQc0kjHiOOJcuF-19" target="3S36RkMQc0kjHiOOJcuF-22" edge="1">
          <mxGeometry width="100" height="100" relative="1" as="geometry">
            <mxPoint x="-840" y="1039" as="sourcePoint" />
            <mxPoint x="-652" y="920" as="targetPoint" />
            <Array as="points">
              <mxPoint x="-670" y="540" />
            </Array>
          </mxGeometry>
        </mxCell>
        <object label="institutions" festivals="" id="3S36RkMQc0kjHiOOJcuF-61">
          <mxCell style="shape=table;startSize=30;container=1;collapsible=1;childLayout=tableLayout;fixedRows=1;rowLines=0;fontStyle=1;align=center;resizeLast=1;fontSize=22;" parent="1" vertex="1">
            <mxGeometry x="-1670" width="660" height="400.0000000000002" as="geometry" />
          </mxCell>
        </object>
        <mxCell id="3S36RkMQc0kjHiOOJcuF-62" value="" style="shape=partialRectangle;collapsible=0;dropTarget=0;pointerEvents=0;fillColor=none;points=[[0,0.5],[1,0.5]];portConstraint=eastwest;top=0;left=0;right=0;bottom=1;fontSize=22;fontStyle=1" parent="3S36RkMQc0kjHiOOJcuF-61" vertex="1">
          <mxGeometry y="30" width="660" height="20" as="geometry" />
        </mxCell>
        <mxCell id="3S36RkMQc0kjHiOOJcuF-63" value="PK" style="shape=partialRectangle;overflow=hidden;connectable=0;fillColor=none;top=0;left=0;bottom=0;right=0;fontStyle=1;fontSize=22;" parent="3S36RkMQc0kjHiOOJcuF-62" vertex="1">
          <mxGeometry width="30" height="20" as="geometry">
            <mxRectangle width="30" height="20" as="alternateBounds" />
          </mxGeometry>
        </mxCell>
        <mxCell id="3S36RkMQc0kjHiOOJcuF-64" value="    id INT AUTO_INCREMENT" style="shape=partialRectangle;overflow=hidden;connectable=0;fillColor=none;top=0;left=0;bottom=0;right=0;align=left;spacingLeft=6;fontStyle=5;fontSize=22;" parent="3S36RkMQc0kjHiOOJcuF-62" vertex="1">
          <mxGeometry x="30" width="630" height="20" as="geometry">
            <mxRectangle width="630" height="20" as="alternateBounds" />
          </mxGeometry>
        </mxCell>
        <mxCell id="3S36RkMQc0kjHiOOJcuF-65" value="" style="shape=partialRectangle;collapsible=0;dropTarget=0;pointerEvents=0;fillColor=none;points=[[0,0.5],[1,0.5]];portConstraint=eastwest;top=0;left=0;right=0;bottom=0;fontSize=22;fontStyle=1" parent="3S36RkMQc0kjHiOOJcuF-61" vertex="1">
          <mxGeometry y="50" width="660" height="310" as="geometry" />
        </mxCell>
        <mxCell id="3S36RkMQc0kjHiOOJcuF-66" value="" style="shape=partialRectangle;overflow=hidden;connectable=0;fillColor=none;top=0;left=0;bottom=0;right=0;fontSize=22;fontStyle=1" parent="3S36RkMQc0kjHiOOJcuF-65" vertex="1">
          <mxGeometry width="30" height="310" as="geometry">
            <mxRectangle width="30" height="310" as="alternateBounds" />
          </mxGeometry>
        </mxCell>
        <mxCell id="3S36RkMQc0kjHiOOJcuF-67" value="name VARCHAR(255) NOT NULL,&#xa;type ENUM(&#39;school&#39;, &#39;college&#39;, &#39;university&#39;) NOT NULL,&#xa;location VARCHAR(255) NOT NULL,&#xa;established_year INT NOT NULL,&#xa;students_count INT NOT NULL,&#xa;programs TEXT NOT NULL,&#xa;image_url VARCHAR(500),&#xa;map_url VARCHAR(500),&#xa;website_url VARCHAR(500),&#xa;created_at TIMESTAMP DEFAULT CURRENT_TIMESTAMP" style="shape=partialRectangle;overflow=hidden;connectable=0;fillColor=none;top=0;left=0;bottom=0;right=0;align=left;spacingLeft=6;fontSize=22;fontStyle=0" parent="3S36RkMQc0kjHiOOJcuF-65" vertex="1">
          <mxGeometry x="30" width="630" height="310" as="geometry">
            <mxRectangle width="630" height="310" as="alternateBounds" />
          </mxGeometry>
        </mxCell>
        <mxCell id="3S36RkMQc0kjHiOOJcuF-68" value="" style="edgeStyle=entityRelationEdgeStyle;fontSize=12;html=1;endArrow=ERzeroToMany;endFill=1;startArrow=ERzeroToMany;rounded=0;exitX=1;exitY=0.5;exitDx=0;exitDy=0;entryX=0;entryY=0.308;entryDx=0;entryDy=0;entryPerimeter=0;" parent="1" source="3S36RkMQc0kjHiOOJcuF-62" target="C-vyLk0tnHw3VtMMgP7b-27" edge="1">
          <mxGeometry width="100" height="100" relative="1" as="geometry">
            <mxPoint x="-551" y="89" as="sourcePoint" />
            <mxPoint x="-40" y="-60" as="targetPoint" />
            <Array as="points">
              <mxPoint x="-700" y="185" />
              <mxPoint x="-710" y="735" />
            </Array>
          </mxGeometry>
        </mxCell>
        <mxCell id="3S36RkMQc0kjHiOOJcuF-72" value="" style="edgeStyle=orthogonalEdgeStyle;fontSize=12;html=1;endArrow=ERzeroToMany;endFill=1;startArrow=ERzeroToMany;rounded=0;entryX=0;entryY=0.5;entryDx=0;entryDy=0;exitX=0.75;exitY=1;exitDx=0;exitDy=0;" parent="1" source="3S36RkMQc0kjHiOOJcuF-61" target="rImmkoyUhkc8kld3lksG-100" edge="1">
          <mxGeometry width="100" height="100" relative="1" as="geometry">
            <mxPoint x="-1200" y="400" as="sourcePoint" />
            <mxPoint x="460" y="940" as="targetPoint" />
            <Array as="points">
              <mxPoint x="-1175" y="440" />
              <mxPoint x="-970" y="440" />
              <mxPoint x="-970" y="900" />
              <mxPoint x="-70" y="900" />
              <mxPoint x="-70" y="1115" />
            </Array>
          </mxGeometry>
        </mxCell>
        <mxCell id="3S36RkMQc0kjHiOOJcuF-80" value="books" style="shape=table;startSize=30;container=1;collapsible=1;childLayout=tableLayout;fixedRows=1;rowLines=0;fontStyle=1;align=center;resizeLast=1;fontSize=22;" parent="1" vertex="1">
          <mxGeometry x="800" y="-250" width="660" height="320" as="geometry" />
        </mxCell>
        <mxCell id="3S36RkMQc0kjHiOOJcuF-81" value="" style="shape=partialRectangle;collapsible=0;dropTarget=0;pointerEvents=0;fillColor=none;points=[[0,0.5],[1,0.5]];portConstraint=eastwest;top=0;left=0;right=0;bottom=1;fontSize=22;fontStyle=1" parent="3S36RkMQc0kjHiOOJcuF-80" vertex="1">
          <mxGeometry y="30" width="660" height="30" as="geometry" />
        </mxCell>
        <mxCell id="3S36RkMQc0kjHiOOJcuF-82" value="PK" style="shape=partialRectangle;overflow=hidden;connectable=0;fillColor=none;top=0;left=0;bottom=0;right=0;fontStyle=1;fontSize=22;" parent="3S36RkMQc0kjHiOOJcuF-81" vertex="1">
          <mxGeometry width="30" height="30" as="geometry">
            <mxRectangle width="30" height="30" as="alternateBounds" />
          </mxGeometry>
        </mxCell>
        <mxCell id="3S36RkMQc0kjHiOOJcuF-83" value="    id INT AUTO_INCREMENT " style="shape=partialRectangle;overflow=hidden;connectable=0;fillColor=none;top=0;left=0;bottom=0;right=0;align=left;spacingLeft=6;fontStyle=5;fontSize=22;" parent="3S36RkMQc0kjHiOOJcuF-81" vertex="1">
          <mxGeometry x="30" width="630" height="30" as="geometry">
            <mxRectangle width="630" height="30" as="alternateBounds" />
          </mxGeometry>
        </mxCell>
        <mxCell id="3S36RkMQc0kjHiOOJcuF-84" value="" style="shape=partialRectangle;collapsible=0;dropTarget=0;pointerEvents=0;fillColor=none;points=[[0,0.5],[1,0.5]];portConstraint=eastwest;top=0;left=0;right=0;bottom=0;fontSize=22;fontStyle=1" parent="3S36RkMQc0kjHiOOJcuF-80" vertex="1">
          <mxGeometry y="60" width="660" height="260" as="geometry" />
        </mxCell>
        <mxCell id="3S36RkMQc0kjHiOOJcuF-85" value="" style="shape=partialRectangle;overflow=hidden;connectable=0;fillColor=none;top=0;left=0;bottom=0;right=0;fontSize=22;fontStyle=1" parent="3S36RkMQc0kjHiOOJcuF-84" vertex="1">
          <mxGeometry width="30" height="260" as="geometry">
            <mxRectangle width="30" height="260" as="alternateBounds" />
          </mxGeometry>
        </mxCell>
        <mxCell id="3S36RkMQc0kjHiOOJcuF-86" value="title VARCHAR(255) NOT NULL,&#xa;class_level VARCHAR(50) NOT NULL,&#xa;category VARCHAR(100) NOT NULL,&#xa;image_url VARCHAR(500),&#xa;read_url VARCHAR(500),&#xa;download_url VARCHAR(500),&#xa;description TEXT,&#xa;created_at TIMESTAMP DEFAULT CURRENT_TIMESTAMP&#xa;" style="shape=partialRectangle;overflow=hidden;connectable=0;fillColor=none;top=0;left=0;bottom=0;right=0;align=left;spacingLeft=6;fontSize=22;fontStyle=0" parent="3S36RkMQc0kjHiOOJcuF-84" vertex="1">
          <mxGeometry x="30" width="630" height="260" as="geometry">
            <mxRectangle width="630" height="260" as="alternateBounds" />
          </mxGeometry>
        </mxCell>
        <mxCell id="3S36RkMQc0kjHiOOJcuF-87" value="" style="edgeStyle=entityRelationEdgeStyle;fontSize=12;html=1;endArrow=ERzeroToMany;endFill=1;startArrow=ERzeroToMany;rounded=0;exitX=1;exitY=0.5;exitDx=0;exitDy=0;entryX=0;entryY=0.5;entryDx=0;entryDy=0;" parent="1" source="C-vyLk0tnHw3VtMMgP7b-27" target="3S36RkMQc0kjHiOOJcuF-84" edge="1">
          <mxGeometry width="100" height="100" relative="1" as="geometry">
            <mxPoint x="1037" y="552" as="sourcePoint" />
            <mxPoint x="940" y="140" as="targetPoint" />
          </mxGeometry>
        </mxCell>
        <mxCell id="3S36RkMQc0kjHiOOJcuF-88" value="alphabets" style="shape=table;startSize=40;container=1;collapsible=1;childLayout=tableLayout;fixedRows=1;rowLines=0;fontStyle=1;align=center;resizeLast=1;fontSize=22;" parent="1" vertex="1">
          <mxGeometry x="1730" y="-640" width="730" height="330" as="geometry" />
        </mxCell>
        <mxCell id="3S36RkMQc0kjHiOOJcuF-89" value="" style="shape=partialRectangle;collapsible=0;dropTarget=0;pointerEvents=0;fillColor=none;points=[[0,0.5],[1,0.5]];portConstraint=eastwest;top=0;left=0;right=0;bottom=1;fontSize=22;fontStyle=1" parent="3S36RkMQc0kjHiOOJcuF-88" vertex="1">
          <mxGeometry y="40" width="730" height="90" as="geometry" />
        </mxCell>
        <mxCell id="3S36RkMQc0kjHiOOJcuF-90" value="PK" style="shape=partialRectangle;overflow=hidden;connectable=0;fillColor=none;top=0;left=0;bottom=0;right=0;fontStyle=1;fontSize=22;" parent="3S36RkMQc0kjHiOOJcuF-89" vertex="1">
          <mxGeometry width="30" height="90" as="geometry">
            <mxRectangle width="30" height="90" as="alternateBounds" />
          </mxGeometry>
        </mxCell>
        <mxCell id="3S36RkMQc0kjHiOOJcuF-91" value="    id INT AUTO_INCREMENT " style="shape=partialRectangle;overflow=hidden;connectable=0;fillColor=none;top=0;left=0;bottom=0;right=0;align=left;spacingLeft=6;fontStyle=5;fontSize=22;" parent="3S36RkMQc0kjHiOOJcuF-89" vertex="1">
          <mxGeometry x="30" width="700" height="90" as="geometry">
            <mxRectangle width="700" height="90" as="alternateBounds" />
          </mxGeometry>
        </mxCell>
        <mxCell id="3S36RkMQc0kjHiOOJcuF-92" value="" style="shape=partialRectangle;collapsible=0;dropTarget=0;pointerEvents=0;fillColor=none;points=[[0,0.5],[1,0.5]];portConstraint=eastwest;top=0;left=0;right=0;bottom=0;fontSize=22;fontStyle=1" parent="3S36RkMQc0kjHiOOJcuF-88" vertex="1">
          <mxGeometry y="130" width="730" height="200" as="geometry" />
        </mxCell>
        <mxCell id="3S36RkMQc0kjHiOOJcuF-93" value="" style="shape=partialRectangle;overflow=hidden;connectable=0;fillColor=none;top=0;left=0;bottom=0;right=0;fontSize=22;fontStyle=1" parent="3S36RkMQc0kjHiOOJcuF-92" vertex="1">
          <mxGeometry width="30" height="200" as="geometry">
            <mxRectangle width="30" height="200" as="alternateBounds" />
          </mxGeometry>
        </mxCell>
        <mxCell id="3S36RkMQc0kjHiOOJcuF-94" value="char_text VARCHAR(10) NOT NULL,&#xa;pronunciation VARCHAR(100) NOT NULL,&#xa;ipa_notation VARCHAR(50) NOT NULL,&#xa;type ENUM(&#39;vowel&#39;, &#39;consonant&#39;, &#39;number&#39;, &#39;english&#39;, &#39;english_number&#39;),&#xa;created_at TIMESTAMP DEFAULT CURRENT_TIMESTAMP," style="shape=partialRectangle;overflow=hidden;connectable=0;fillColor=none;top=0;left=0;bottom=0;right=0;align=left;spacingLeft=6;fontSize=22;fontStyle=0" parent="3S36RkMQc0kjHiOOJcuF-92" vertex="1">
          <mxGeometry x="30" width="700" height="200" as="geometry">
            <mxRectangle width="700" height="200" as="alternateBounds" />
          </mxGeometry>
        </mxCell>
        <mxCell id="3S36RkMQc0kjHiOOJcuF-95" value="" style="edgeStyle=orthogonalEdgeStyle;fontSize=12;html=1;endArrow=ERzeroToMany;endFill=1;startArrow=ERzeroToMany;rounded=0;exitX=1;exitY=0;exitDx=0;exitDy=0;entryX=0;entryY=0.5;entryDx=0;entryDy=0;" parent="1" source="C-vyLk0tnHw3VtMMgP7b-23" target="3S36RkMQc0kjHiOOJcuF-92" edge="1">
          <mxGeometry width="100" height="100" relative="1" as="geometry">
            <mxPoint x="1300" y="-220" as="sourcePoint" />
            <mxPoint x="1370" y="-340" as="targetPoint" />
            <Array as="points">
              <mxPoint x="730" y="-310" />
              <mxPoint x="1650" y="-310" />
              <mxPoint x="1650" y="-405" />
            </Array>
          </mxGeometry>
        </mxCell>
        <object label="transport_media" festivals="" id="yXthqd6eMb65fs1G_OVw-38">
          <mxCell style="shape=table;startSize=30;container=1;collapsible=1;childLayout=tableLayout;fixedRows=1;rowLines=0;fontStyle=1;align=center;resizeLast=1;fontSize=22;" vertex="1" parent="1">
            <mxGeometry x="-1150" y="-1200" width="660" height="460" as="geometry" />
          </mxCell>
        </object>
        <mxCell id="yXthqd6eMb65fs1G_OVw-39" value="" style="shape=partialRectangle;collapsible=0;dropTarget=0;pointerEvents=0;fillColor=none;points=[[0,0.5],[1,0.5]];portConstraint=eastwest;top=0;left=0;right=0;bottom=1;fontSize=22;fontStyle=1" vertex="1" parent="yXthqd6eMb65fs1G_OVw-38">
          <mxGeometry y="30" width="660" height="60" as="geometry" />
        </mxCell>
        <mxCell id="yXthqd6eMb65fs1G_OVw-40" value="PK" style="shape=partialRectangle;overflow=hidden;connectable=0;fillColor=none;top=0;left=0;bottom=0;right=0;fontStyle=1;fontSize=22;" vertex="1" parent="yXthqd6eMb65fs1G_OVw-39">
          <mxGeometry width="30" height="60" as="geometry">
            <mxRectangle width="30" height="60" as="alternateBounds" />
          </mxGeometry>
        </mxCell>
        <mxCell id="yXthqd6eMb65fs1G_OVw-41" value="    id INT AUTO_INCREMENT" style="shape=partialRectangle;overflow=hidden;connectable=0;fillColor=none;top=0;left=0;bottom=0;right=0;align=left;spacingLeft=6;fontStyle=5;fontSize=22;" vertex="1" parent="yXthqd6eMb65fs1G_OVw-39">
          <mxGeometry x="30" width="630" height="60" as="geometry">
            <mxRectangle width="630" height="60" as="alternateBounds" />
          </mxGeometry>
        </mxCell>
        <mxCell id="yXthqd6eMb65fs1G_OVw-42" value="" style="shape=partialRectangle;collapsible=0;dropTarget=0;pointerEvents=0;fillColor=none;points=[[0,0.5],[1,0.5]];portConstraint=eastwest;top=0;left=0;right=0;bottom=0;fontSize=22;fontStyle=1" vertex="1" parent="yXthqd6eMb65fs1G_OVw-38">
          <mxGeometry y="90" width="660" height="360" as="geometry" />
        </mxCell>
        <mxCell id="yXthqd6eMb65fs1G_OVw-43" value="&#xa;&#xa;&#xa;&#xa;&#xa;FK" style="shape=partialRectangle;overflow=hidden;connectable=0;fillColor=none;top=0;left=0;bottom=0;right=0;fontSize=22;fontStyle=1" vertex="1" parent="yXthqd6eMb65fs1G_OVw-42">
          <mxGeometry width="30" height="360" as="geometry">
            <mxRectangle width="30" height="360" as="alternateBounds" />
          </mxGeometry>
        </mxCell>
        <mxCell id="yXthqd6eMb65fs1G_OVw-44" value=",&#xa;&#xa;  transport_id INT NOT NULL,&#xa;&#xa;  media_url TEXT NOT NULL,&#xa;&#xa;  FOREIGN KEY (transport_id) REFERENCES transport(id) &#xa;  ON DELETE CASCADE" style="shape=partialRectangle;overflow=hidden;connectable=0;fillColor=none;top=0;left=0;bottom=0;right=0;align=left;spacingLeft=6;fontSize=22;fontStyle=0" vertex="1" parent="yXthqd6eMb65fs1G_OVw-42">
          <mxGeometry x="30" width="630" height="360" as="geometry">
            <mxRectangle width="630" height="360" as="alternateBounds" />
          </mxGeometry>
        </mxCell>
        <object label="hill" festivals="" id="yXthqd6eMb65fs1G_OVw-45">
          <mxCell style="shape=table;startSize=20;container=1;collapsible=1;childLayout=tableLayout;fixedRows=1;rowLines=0;fontStyle=1;align=center;resizeLast=1;fontSize=22;" vertex="1" parent="1">
            <mxGeometry x="-1990" y="-560" width="660" height="400.0000000000002" as="geometry" />
          </mxCell>
        </object>
        <mxCell id="yXthqd6eMb65fs1G_OVw-46" value="" style="shape=partialRectangle;collapsible=0;dropTarget=0;pointerEvents=0;fillColor=none;points=[[0,0.5],[1,0.5]];portConstraint=eastwest;top=0;left=0;right=0;bottom=1;fontSize=22;fontStyle=1" vertex="1" parent="yXthqd6eMb65fs1G_OVw-45">
          <mxGeometry y="20" width="660" height="20" as="geometry" />
        </mxCell>
        <mxCell id="yXthqd6eMb65fs1G_OVw-47" value="PK" style="shape=partialRectangle;overflow=hidden;connectable=0;fillColor=none;top=0;left=0;bottom=0;right=0;fontStyle=1;fontSize=22;" vertex="1" parent="yXthqd6eMb65fs1G_OVw-46">
          <mxGeometry width="30" height="20" as="geometry">
            <mxRectangle width="30" height="20" as="alternateBounds" />
          </mxGeometry>
        </mxCell>
        <mxCell id="yXthqd6eMb65fs1G_OVw-48" value="    id INT AUTO_INCREMENT" style="shape=partialRectangle;overflow=hidden;connectable=0;fillColor=none;top=0;left=0;bottom=0;right=0;align=left;spacingLeft=6;fontStyle=5;fontSize=22;" vertex="1" parent="yXthqd6eMb65fs1G_OVw-46">
          <mxGeometry x="30" width="630" height="20" as="geometry">
            <mxRectangle width="630" height="20" as="alternateBounds" />
          </mxGeometry>
        </mxCell>
        <mxCell id="yXthqd6eMb65fs1G_OVw-49" value="" style="shape=partialRectangle;collapsible=0;dropTarget=0;pointerEvents=0;fillColor=none;points=[[0,0.5],[1,0.5]];portConstraint=eastwest;top=0;left=0;right=0;bottom=0;fontSize=22;fontStyle=1" vertex="1" parent="yXthqd6eMb65fs1G_OVw-45">
          <mxGeometry y="40" width="660" height="310" as="geometry" />
        </mxCell>
        <mxCell id="yXthqd6eMb65fs1G_OVw-50" value="" style="shape=partialRectangle;overflow=hidden;connectable=0;fillColor=none;top=0;left=0;bottom=0;right=0;fontSize=22;fontStyle=1" vertex="1" parent="yXthqd6eMb65fs1G_OVw-49">
          <mxGeometry width="30" height="310" as="geometry">
            <mxRectangle width="30" height="310" as="alternateBounds" />
          </mxGeometry>
        </mxCell>
        <mxCell id="yXthqd6eMb65fs1G_OVw-51" value="&#xa;  name VARCHAR(255) NOT NULL,&#xa;  description TEXT NOT NULL,&#xa;  map_url TEXT NOT NULL,&#xa;  location VARCHAR(255) NOT NULL,&#xa;  tourism_info TEXT NOT NULL, &#xa;  hill_pic TEXT NOT NULL,&#xa;  created_at TIMESTAMP DEFAULT CURRENT_TIMESTAMP,&#xa;  &#xa;" style="shape=partialRectangle;overflow=hidden;connectable=0;fillColor=none;top=0;left=0;bottom=0;right=0;align=left;spacingLeft=6;fontSize=22;fontStyle=0" vertex="1" parent="yXthqd6eMb65fs1G_OVw-49">
          <mxGeometry x="30" width="630" height="310" as="geometry">
            <mxRectangle width="630" height="310" as="alternateBounds" />
          </mxGeometry>
        </mxCell>
        <object label="hill_media" festivals="" id="yXthqd6eMb65fs1G_OVw-53">
          <mxCell style="shape=table;startSize=30;container=1;collapsible=1;childLayout=tableLayout;fixedRows=1;rowLines=0;fontStyle=1;align=center;resizeLast=1;fontSize=22;" vertex="1" parent="1">
            <mxGeometry x="-1935" y="-1200" width="660" height="460" as="geometry" />
          </mxCell>
        </object>
        <mxCell id="yXthqd6eMb65fs1G_OVw-54" value="" style="shape=partialRectangle;collapsible=0;dropTarget=0;pointerEvents=0;fillColor=none;points=[[0,0.5],[1,0.5]];portConstraint=eastwest;top=0;left=0;right=0;bottom=1;fontSize=22;fontStyle=1" vertex="1" parent="yXthqd6eMb65fs1G_OVw-53">
          <mxGeometry y="30" width="660" height="60" as="geometry" />
        </mxCell>
        <mxCell id="yXthqd6eMb65fs1G_OVw-55" value="PK" style="shape=partialRectangle;overflow=hidden;connectable=0;fillColor=none;top=0;left=0;bottom=0;right=0;fontStyle=1;fontSize=22;" vertex="1" parent="yXthqd6eMb65fs1G_OVw-54">
          <mxGeometry width="30" height="60" as="geometry">
            <mxRectangle width="30" height="60" as="alternateBounds" />
          </mxGeometry>
        </mxCell>
        <mxCell id="yXthqd6eMb65fs1G_OVw-56" value="    id INT AUTO_INCREMENT" style="shape=partialRectangle;overflow=hidden;connectable=0;fillColor=none;top=0;left=0;bottom=0;right=0;align=left;spacingLeft=6;fontStyle=5;fontSize=22;" vertex="1" parent="yXthqd6eMb65fs1G_OVw-54">
          <mxGeometry x="30" width="630" height="60" as="geometry">
            <mxRectangle width="630" height="60" as="alternateBounds" />
          </mxGeometry>
        </mxCell>
        <mxCell id="yXthqd6eMb65fs1G_OVw-57" value="" style="shape=partialRectangle;collapsible=0;dropTarget=0;pointerEvents=0;fillColor=none;points=[[0,0.5],[1,0.5]];portConstraint=eastwest;top=0;left=0;right=0;bottom=0;fontSize=22;fontStyle=1" vertex="1" parent="yXthqd6eMb65fs1G_OVw-53">
          <mxGeometry y="90" width="660" height="360" as="geometry" />
        </mxCell>
        <mxCell id="yXthqd6eMb65fs1G_OVw-58" value="&#xa;&#xa;&#xa;&#xa;&#xa;FK" style="shape=partialRectangle;overflow=hidden;connectable=0;fillColor=none;top=0;left=0;bottom=0;right=0;fontSize=22;fontStyle=1" vertex="1" parent="yXthqd6eMb65fs1G_OVw-57">
          <mxGeometry width="30" height="360" as="geometry">
            <mxRectangle width="30" height="360" as="alternateBounds" />
          </mxGeometry>
        </mxCell>
        <mxCell id="yXthqd6eMb65fs1G_OVw-59" value=" hill_id INT NOT NULL,&#xa;&#xa;  media_url TEXT NOT NULL,&#xa;&#xa;  created_at TIMESTAMP DEFAULT CURRENT_TIMESTAMP,&#xa;&#xa;  FOREIGN KEY (hill_id) REFERENCES hill(id) &#xa; ON DELETE CASCADE" style="shape=partialRectangle;overflow=hidden;connectable=0;fillColor=none;top=0;left=0;bottom=0;right=0;align=left;spacingLeft=6;fontSize=22;fontStyle=0" vertex="1" parent="yXthqd6eMb65fs1G_OVw-57">
          <mxGeometry x="30" width="630" height="360" as="geometry">
            <mxRectangle width="630" height="360" as="alternateBounds" />
          </mxGeometry>
        </mxCell>
        <object label="transport" festivals="" id="yXthqd6eMb65fs1G_OVw-60">
          <mxCell style="shape=table;startSize=30;container=1;collapsible=1;childLayout=tableLayout;fixedRows=1;rowLines=0;fontStyle=1;align=center;resizeLast=1;fontSize=22;" vertex="1" parent="1">
            <mxGeometry x="-1160" y="-640" width="660" height="440" as="geometry" />
          </mxCell>
        </object>
        <mxCell id="yXthqd6eMb65fs1G_OVw-61" value="" style="shape=partialRectangle;collapsible=0;dropTarget=0;pointerEvents=0;fillColor=none;points=[[0,0.5],[1,0.5]];portConstraint=eastwest;top=0;left=0;right=0;bottom=1;fontSize=22;fontStyle=1" vertex="1" parent="yXthqd6eMb65fs1G_OVw-60">
          <mxGeometry y="30" width="660" height="70" as="geometry" />
        </mxCell>
        <mxCell id="yXthqd6eMb65fs1G_OVw-62" value="PK" style="shape=partialRectangle;overflow=hidden;connectable=0;fillColor=none;top=0;left=0;bottom=0;right=0;fontStyle=1;fontSize=22;" vertex="1" parent="yXthqd6eMb65fs1G_OVw-61">
          <mxGeometry width="39.99999999999977" height="70" as="geometry">
            <mxRectangle width="39.99999999999977" height="70" as="alternateBounds" />
          </mxGeometry>
        </mxCell>
        <mxCell id="yXthqd6eMb65fs1G_OVw-63" value="    id INT AUTO_INCREMENT" style="shape=partialRectangle;overflow=hidden;connectable=0;fillColor=none;top=0;left=0;bottom=0;right=0;align=left;spacingLeft=6;fontStyle=5;fontSize=22;" vertex="1" parent="yXthqd6eMb65fs1G_OVw-61">
          <mxGeometry x="39.99999999999977" width="620.0000000000002" height="70" as="geometry">
            <mxRectangle width="620.0000000000002" height="70" as="alternateBounds" />
          </mxGeometry>
        </mxCell>
        <mxCell id="yXthqd6eMb65fs1G_OVw-64" value="" style="shape=partialRectangle;collapsible=0;dropTarget=0;pointerEvents=0;fillColor=none;points=[[0,0.5],[1,0.5]];portConstraint=eastwest;top=0;left=0;right=0;bottom=0;fontSize=22;fontStyle=1" vertex="1" parent="yXthqd6eMb65fs1G_OVw-60">
          <mxGeometry y="100" width="660" height="310" as="geometry" />
        </mxCell>
        <mxCell id="yXthqd6eMb65fs1G_OVw-65" value="" style="shape=partialRectangle;overflow=hidden;connectable=0;fillColor=none;top=0;left=0;bottom=0;right=0;fontSize=22;fontStyle=1" vertex="1" parent="yXthqd6eMb65fs1G_OVw-64">
          <mxGeometry width="39.99999999999977" height="310" as="geometry">
            <mxRectangle width="39.99999999999977" height="310" as="alternateBounds" />
          </mxGeometry>
        </mxCell>
        <mxCell id="yXthqd6eMb65fs1G_OVw-66" value="transport_type VARCHAR(255) NOT NULL,&#xa;  name VARCHAR(255) NOT NULL,&#xa;  description TEXT NOT NULL,&#xa;  start_location VARCHAR(255) NOT NULL,&#xa;  end_location VARCHAR(255) NOT NULL,&#xa;  stops TEXT NOT NULL,&#xa;  map_url TEXT NOT NULL,&#xa;  departure_date DATE NOT NULL,&#xa;  departure_time TIME NOT NULL,&#xa;  frequency VARCHAR(255) NOT NULL,&#xa;  availability VARCHAR(255) NOT NULL,&#xa;  created_at TIMESTAMP DEFAULT CURRENT_TIMESTAMP" style="shape=partialRectangle;overflow=hidden;connectable=0;fillColor=none;top=0;left=0;bottom=0;right=0;align=left;spacingLeft=6;fontSize=22;fontStyle=0" vertex="1" parent="yXthqd6eMb65fs1G_OVw-64">
          <mxGeometry x="39.99999999999977" width="620.0000000000002" height="310" as="geometry">
            <mxRectangle width="620.0000000000002" height="310" as="alternateBounds" />
          </mxGeometry>
        </mxCell>
        <mxCell id="yXthqd6eMb65fs1G_OVw-68" value="" style="edgeStyle=entityRelationEdgeStyle;fontSize=12;html=1;endArrow=ERzeroToMany;endFill=1;startArrow=ERzeroToMany;rounded=0;exitX=0.002;exitY=0.081;exitDx=0;exitDy=0;exitPerimeter=0;entryX=0.75;entryY=1;entryDx=0;entryDy=0;" edge="1" parent="1" source="C-vyLk0tnHw3VtMMgP7b-23" target="yXthqd6eMb65fs1G_OVw-60">
          <mxGeometry width="100" height="100" relative="1" as="geometry">
            <mxPoint x="290" y="-40" as="sourcePoint" />
            <mxPoint x="390" y="-140" as="targetPoint" />
          </mxGeometry>
        </mxCell>
        <mxCell id="yXthqd6eMb65fs1G_OVw-71" value="" style="edgeStyle=entityRelationEdgeStyle;fontSize=12;html=1;endArrow=ERzeroToMany;endFill=1;startArrow=ERzeroToMany;rounded=0;entryX=0.5;entryY=1;entryDx=0;entryDy=0;exitX=0.02;exitY=0.108;exitDx=0;exitDy=0;exitPerimeter=0;" edge="1" parent="1" source="C-vyLk0tnHw3VtMMgP7b-27" target="yXthqd6eMb65fs1G_OVw-45">
          <mxGeometry width="100" height="100" relative="1" as="geometry">
            <mxPoint x="-1090" y="-10" as="sourcePoint" />
            <mxPoint x="-1450" y="-90" as="targetPoint" />
            <Array as="points">
              <mxPoint x="249" y="4" />
              <mxPoint x="249" />
              <mxPoint x="-1700" y="-180" />
            </Array>
          </mxGeometry>
        </mxCell>
        <mxCell id="yXthqd6eMb65fs1G_OVw-75" value="" style="edgeStyle=entityRelationEdgeStyle;fontSize=12;html=1;endArrow=ERoneToMany;rounded=0;entryX=0.25;entryY=1;entryDx=0;entryDy=0;exitX=0.308;exitY=0.009;exitDx=0;exitDy=0;exitPerimeter=0;" edge="1" parent="1" source="yXthqd6eMb65fs1G_OVw-45" target="yXthqd6eMb65fs1G_OVw-53">
          <mxGeometry width="100" height="100" relative="1" as="geometry">
            <mxPoint x="-1810" y="-590" as="sourcePoint" />
            <mxPoint x="-1710" y="-690" as="targetPoint" />
            <Array as="points">
              <mxPoint x="-1800" y="-580" />
              <mxPoint x="-1760" y="-670" />
            </Array>
          </mxGeometry>
        </mxCell>
        <mxCell id="yXthqd6eMb65fs1G_OVw-76" value="" style="edgeStyle=entityRelationEdgeStyle;fontSize=12;html=1;endArrow=ERoneToMany;rounded=0;entryX=0.25;entryY=1;entryDx=0;entryDy=0;exitX=0.374;exitY=0.004;exitDx=0;exitDy=0;exitPerimeter=0;" edge="1" parent="1" source="yXthqd6eMb65fs1G_OVw-60" target="yXthqd6eMb65fs1G_OVw-38">
          <mxGeometry width="100" height="100" relative="1" as="geometry">
            <mxPoint x="-910" y="-570" as="sourcePoint" />
            <mxPoint x="-810" y="-670" as="targetPoint" />
          </mxGeometry>
        </mxCell>
      </root>
    </mxGraphModel>
  </diagram>
</mxfile>
